<svg version="1.1" viewBox="0.0 0.0 343.67979002624674 343.7716535433071" fill="none" stroke="none" stroke-linecap="square" stroke-miterlimit="10" xmlns:xlink="http://www.w3.org/1999/xlink" xmlns="http://www.w3.org/2000/svg"><clipPath id="p.0"><path d="m0 0l343.67978 0l0 343.77167l-343.67978 0l0 -343.77167z" clip-rule="nonzero"/></clipPath><g clip-path="url(#p.0)"><path fill="#000000" fill-opacity="0.0" d="m0 0l343.67978 0l0 343.77167l-343.67978 0z" fill-rule="evenodd"/><path fill="#000000" d="m130.00656 222.99081l41.97374 -50.960632l0.042007446 50.960632z" fill-rule="evenodd"/><path fill="#d9d2e9" d="m117.78609 118.63911l117.98425 0l0 110.45669l-117.98425 0z" fill-rule="evenodd"/><path fill="#e06666" d="m195.47638 121.7021l29.32454 -50.81888l48.185562 0l29.324554 50.81888l-29.324554 50.81888l-48.185562 0z" fill-rule="evenodd"/><path fill="#f3f3f3" d="m118.60499 70.24803l29.324532 -50.818874l48.185577 0l29.32454 50.818874l-29.32454 50.81887l-48.185577 0z" fill-rule="evenodd"/><path fill="#e06666" d="m41.368767 121.66798l29.32454 -50.81887l48.18557 0l29.32454 50.81887l-29.32454 50.81887l-48.18557 0z" fill-rule="evenodd"/><path fill="#f3f3f3" d="m41.368767 223.43439l29.32454 -50.81888l48.18557 0l29.32454 50.81888l-29.32454 50.81888l-48.18557 0z" fill-rule="evenodd"/><path fill="#e06666" d="m118.60499 273.52362l29.324532 -50.81888l48.185577 0l29.32454 50.81888l-29.32454 50.81888l-48.185577 0z" fill-rule="evenodd"/><path fill="#f3f3f3" d="m195.47638 223.43439l29.32454 -50.81888l48.185562 0l29.324554 50.81888l-29.324554 50.81888l-48.185562 0z" fill-rule="evenodd"/></g></svg>