<?xml version="1.0" encoding="UTF-8" standalone="no"?>
<!-- Created with Inkscape (http://www.inkscape.org/) -->

<svg
   width="3135mm"
   height="1080mm"
   viewBox="0 0 3135 1080"
   version="1.1"
   id="svg1"
   sodipodi:docname="bloxelcom-live-text.svg"
   xml:space="preserve"
   inkscape:version="1.3.2 (091e20ef0f, 2023-11-25)"
   xmlns:inkscape="http://www.inkscape.org/namespaces/inkscape"
   xmlns:sodipodi="http://sodipodi.sourceforge.net/DTD/sodipodi-0.dtd"
   xmlns="http://www.w3.org/2000/svg"
   xmlns:svg="http://www.w3.org/2000/svg"><sodipodi:namedview
     id="namedview1"
     pagecolor="#100117"
     bordercolor="#000000"
     borderopacity="0.25"
     inkscape:showpageshadow="2"
     inkscape:pageopacity="0.0"
     inkscape:pagecheckerboard="0"
     inkscape:deskcolor="#d1d1d1"
     inkscape:document-units="mm"
     inkscape:zoom="0.097993828"
     inkscape:cx="5347.2755"
     inkscape:cy="2653.2283"
     inkscape:window-width="1920"
     inkscape:window-height="1040"
     inkscape:window-x="0"
     inkscape:window-y="0"
     inkscape:window-maximized="0"
     inkscape:current-layer="layer1"
     showgrid="true"><inkscape:grid
       id="grid1"
       units="mm"
       originx="0"
       originy="0"
       spacingx="0.99999998"
       spacingy="1"
       empcolor="#0099e5"
       empopacity="0.30196078"
       color="#0099e5"
       opacity="0.14902"
       empspacing="5"
       dotted="false"
       gridanglex="30"
       gridanglez="30"
       visible="true" /></sodipodi:namedview><defs
     id="defs1"><rect
   x="4271.771"
   y="1394.1208"
   width="9461.9316"
   height="2215.1533"
   id="rect1" /><rect
   x="4271.771"
   y="1394.1208"
   width="9461.9316"
   height="2215.1533"
   id="rect1-2" /><inkscape:path-effect
   effect="mirror_symmetry"
   start_point="6392.7581,794.2506"
   end_point="6392.7581,6015.6462"
   center_point="6392.7581,3404.9484"
   id="path-effect3"
   is_visible="true"
   lpeversion="1.2"
   lpesatellites=""
   mode="free"
   discard_orig_path="false"
   fuse_paths="false"
   oposite_fuse="false"
   split_items="false"
   split_open="false"
   link_styles="false" /><inkscape:path-effect
   effect="mirror_symmetry"
   start_point="6439.4324,4738.8043"
   end_point="6439.4324,8554.1213"
   center_point="6439.4324,6646.4628"
   id="path-effect2"
   is_visible="true"
   lpeversion="1.2"
   lpesatellites=""
   mode="free"
   discard_orig_path="true"
   fuse_paths="false"
   oposite_fuse="false"
   split_items="false"
   split_open="false"
   link_styles="false" /><symbol
   id="E050-mpvf5d"
   viewBox="0 0 1000 1000"
   overflow="inherit"><path
     transform="scale(1,-1)"
     d="M562 -21c0 89 -65 150 -155 150c7 -44 34 -203 55 -323c71 29 100 102 100 173zM420 -206l-58 329c-59 -14 -104 -63 -104 -124c0 -49 22 -75 61 -99c12 -8 22 -13 22 -22s-9 -13 -17 -13c-80 0 -135 96 -135 166c0 94 62 190 153 217c-7 41 -14 88 -23 142 c-15 -15 -31 -29 -48 -44c-88 -76 -174 -185 -174 -307c0 -151 122 -251 265 -251c19 0 38 2 58 6zM332 822c-8 -31 -11 -65 -11 -102c0 -42 5 -81 11 -121c69 68 146 146 146 250c0 69 -24 118 -39 118c-52 0 -98 -105 -107 -145zM122 -513c0 66 45 123 115 123 c75 0 116 -57 116 -111c0 -64 -47 -104 -94 -111c-3 -1 -5 -2 -5 -4c0 -1 2 -2 3 -3c2 0 23 -5 47 -5c101 0 154 55 154 159c0 53 -11 123 -30 219c-23 -4 -50 -7 -79 -7c-186 0 -349 147 -349 334c0 200 126 321 217 406c21 17 73 70 74 71c-17 112 -22 161 -22 215 c0 84 18 212 82 288c33 39 64 51 71 51c18 0 47 -35 71 -86c16 -36 44 -110 44 -201c0 -159 -73 -284 -179 -395c9 -56 19 -115 29 -175c146 0 253 -102 253 -253c0 -103 -73 -205 -171 -237c6 -39 12 -69 15 -89c10 -57 16 -102 16 -141c0 -63 -14 -129 -68 -167 c-36 -22 -77 -34 -124 -34c-135 0 -186 87 -186 153z"
     id="path1-7" /></symbol>
	 <style
   type="text/css"
   id="style1">@import url(http://fonts.googleapis.com/css?family=Orbitron);</style></defs><g
     inkscape:label="Layer 1"
     inkscape:groupmode="layer"
     id="layer1"
     style="display:inline"><text
       xml:space="preserve"
       transform="matrix(0.26458333,0,0,0.26458333,24.427662,26.565192)"
       id="text1-1"
       style="font-style:normal;font-variant:normal;font-weight:normal;font-stretch:normal;font-size:1295px;font-family:Orbitron;-inkscape-font-specification:Orbitron;white-space:pre;shape-inside:url(#rect1-2);display:inline;fill:#000000;fill-opacity:1;stroke:none;stroke-width:35"><tspan
         x="4271.7715"
         y="2527.2461"
         id="tspan3"><tspan
           dx="0 0 0 0 0 0.00018310547 -0.00021362305 0.00030517578 -0.00012207031"
           id="tspan1">Bloxelcom</tspan></tspan></text><text
       xml:space="preserve"
       transform="matrix(0.26458333,0,0,0.26458333,14.287501,1.5875)"
       id="text1"
       style="font-style:normal;font-variant:normal;font-weight:normal;font-stretch:normal;font-size:1295px;font-family:Orbitron;-inkscape-font-specification:Orbitron;white-space:pre;shape-inside:url(#rect1);display:inline;fill:#ffffff;stroke:#ffffff;stroke-width:35"><tspan
         x="4271.7715"
         y="2527.2461"
         id="tspan5"><tspan
           dx="0 0 0 0 0 0.00018310547 -0.00021362305 0.00030517578 -0.00012207031"
           id="tspan4">Bloxelcom</tspan></tspan></text><text
       xml:space="preserve"
       style="font-style:normal;font-variant:normal;font-weight:normal;font-stretch:normal;font-size:171.002px;font-family:Orbitron;-inkscape-font-specification:Orbitron;fill:#000000;fill-opacity:1;stroke:none;stroke-width:4.62168"
       x="1158.46"
       y="859.69312"
       id="text4-7"><tspan
         sodipodi:role="line"
         id="tspan4-3"
         style="fill:#000000;fill-opacity:1;stroke-width:4.62168"
         x="1158.46"
         y="859.69312">Live and Unscripted</tspan></text><text
       xml:space="preserve"
       style="font-style:normal;font-variant:normal;font-weight:normal;font-stretch:normal;font-size:171.002px;font-family:Orbitron;-inkscape-font-specification:Orbitron;fill:#ffffff;fill-opacity:1;stroke:none;stroke-width:4.62168"
       x="1150.8727"
       y="849.15839"
       id="text4"><tspan
         sodipodi:role="line"
         style="fill:#ffffff;fill-opacity:1;stroke-width:4.62168"
         x="1150.8727"
         y="849.15839"
         id="tspan2">Live and Unscripted</tspan></text><g
       inkscape:label="Layer 1"
       id="layer1-9"
       transform="matrix(0.99982685,0,0,0.99982685,-0.9123977,-0.69807935)"><path
         style="display:inline;fill:#2222b6;fill-opacity:1;stroke:none;stroke-width:32.8717;stroke-linecap:butt;stroke-linejoin:bevel;stroke-dasharray:none;stroke-dashoffset:0;stroke-opacity:1;paint-order:markers fill stroke"
         d="m 397.88296,56.842804 c -111.341,53.357636 -209.87061,463.305206 156.07751,479.412186 0,0 57.61638,-97.46115 207.00544,-142.44299 149.38905,-44.98193 286.50749,274.7461 293.91169,226.32311 7.4042,-48.42291 -19.8839,-303.0187 -63.59364,-364.23944 C 947.57416,194.67494 758.62806,60.498544 705.72694,47.721424 652.82578,34.944234 509.2238,3.4852136 397.88296,56.842804 Z"
         id="path5-3-5-2-7-6"
         sodipodi:nodetypes="zczzzzz" /><path
         style="display:inline;fill:#2ef248;fill-opacity:1;stroke:none;stroke-width:33.2603;stroke-linecap:butt;stroke-linejoin:bevel;stroke-dasharray:none;stroke-dashoffset:0;stroke-opacity:1;paint-order:markers fill stroke"
         d="M 1042.4406,665.39823 C 1057.9661,541.15084 763.51778,234.37552 549.80218,538.84294 c 0,0 51.31267,102.19712 7.87343,254.46424 -43.43925,152.26711 -383.31012,123.00191 -346.21557,155.61434 37.09456,32.61243 261.5926,120.53708 337.50002,116.34638 75.90742,-4.1907 293.1879,-93.09893 332.96005,-131.44279 39.77215,-38.34386 144.99499,-144.17949 160.52049,-268.42688 z"
         id="path5-3-5-20"
         sodipodi:nodetypes="zczzzzz" /><path
         style="display:inline;fill:#ff0000;fill-opacity:1;stroke:none;stroke-width:33.2603;stroke-linecap:butt;stroke-linejoin:bevel;stroke-dasharray:none;stroke-dashoffset:0;stroke-opacity:1;paint-order:markers fill stroke"
         d="m 197.51033,910.27607 c 102.61346,71.75608 511.39378,-45.33193 341.98427,-376.50445 0,0 -114.33147,-2.35687 -228.68434,-111.88159 C 196.45733,312.3654 407.96839,32.102857 361.80675,49.672223 315.64516,67.2415 106.1482,218.09092 74.402406,287.16842 42.656612,356.24591 19.795248,589.89703 35.125444,642.97298 50.455601,696.04901 94.89696,838.52005 197.51033,910.27607 Z"
         id="path5-3-5-2-2"
         sodipodi:nodetypes="zczzzzz" /><ellipse
         style="display:inline;opacity:1;fill:none;fill-opacity:1;stroke:#ffffff;stroke-width:35.4078;stroke-dasharray:none;stroke-opacity:1;paint-order:markers fill stroke"
         id="path1-37"
         ry="522.22308"
         rx="520.9859"
         cy="540.62518"
         cx="539.60236" /><path
         style="display:inline;fill:none;fill-opacity:1;stroke:#ffffff;stroke-width:35;stroke-linecap:butt;stroke-linejoin:bevel;stroke-dasharray:none;stroke-dashoffset:0;stroke-opacity:1;paint-order:markers fill stroke"
         d="M 543.91455,540.82198 C 754.81121,250.52769 1074.0816,478.18202 1040.1107,686.62067"
         id="path5-3-59"
         sodipodi:nodetypes="cc" /><path
         style="display:inline;fill:none;fill-opacity:1;stroke:#ffffff;stroke-width:35;stroke-linecap:butt;stroke-linejoin:bevel;stroke-dasharray:none;stroke-dashoffset:0;stroke-opacity:1;paint-order:markers fill stroke"
         d="M 543.76919,540.49636 C 122.77515,475.14653 282.14506,-5.0169985 531.69255,19.13572"
         id="path5-3-9-2"
         sodipodi:nodetypes="cc" /><path
         style="display:inline;fill:none;fill-opacity:1;stroke:#ffffff;stroke-width:35;stroke-linecap:butt;stroke-linejoin:bevel;stroke-dasharray:none;stroke-dashoffset:0;stroke-opacity:1;paint-order:markers fill stroke"
         d="M 543.95625,540.73248 C 686.20032,810.46414 358.03116,1053.2614 132.9346,865.33512"
         id="path5-3-2-2"
         sodipodi:nodetypes="cc" /><g
         id="g1"
         transform="matrix(30.405009,0,0,30.405009,129.29492,357.45121)"><path
           fill="#f04545"
           d="M 0,6.0039 C 0,5.60937 0.0391,5.21875 0.11328,4.83203 0.19138,4.44531 0.30469,4.07031 0.45703,3.70312 0.60547,3.33984 0.79297,2.99609 1.01172,2.66797 1.23047,2.33984 1.48047,2.03515 1.75781,1.75781 2.03516,1.47656 2.33984,1.23047 2.66797,1.01172 2.99609,0.79297 3.33984,0.60547 3.70703,0.45703 4.07031,0.30469 4.44531,0.1914 4.83203,0.11328 5.21875,0.03518 5.60937,0 6.00391,0 h 15.00781 c 0.39453,0 0.78515,0.0352 1.17187,0.11328 0.38672,0.0781 0.76172,0.19141 1.125,0.34375 0.36719,0.14844 0.71094,0.33594 1.03907,0.55469 0.32812,0.21875 0.63281,0.46484 0.91015,0.74609 0.27735,0.27734 0.52735,0.58203 0.7461,0.91016 0.21875,0.32812 0.40625,0.67187 0.55468,1.03515 0.15235,0.36719 0.26563,0.74219 0.34375,1.12891 0.0742,0.38672 0.11328,0.77734 0.11328,1.17187 0,0.39063 -0.0391,0.78125 -0.11328,1.16797 -0.0781,0.38672 -0.1914,0.76172 -0.34375,1.12891 -0.14843,0.36328 -0.33593,0.71094 -0.55468,1.03516 -0.21875,0.32812 -0.46875,0.63281 -0.7461,0.91015 -0.27734,0.28125 -0.58203,0.52735 -0.91015,0.7461 -0.32813,0.22265 -0.67188,0.40625 -1.03907,0.55859 -0.36328,0.14844 -0.73828,0.26172 -1.125,0.33984 -0.38672,0.0781 -0.77734,0.11719 -1.17187,0.11719 H 6.00391 c -0.39454,0 -0.78516,-0.0391 -1.17188,-0.11719 -0.38672,-0.0781 -0.76172,-0.1914 -1.125,-0.33984 C 3.33984,11.39844 2.99609,11.21484 2.66797,10.99609 2.33984,10.77344 2.03516,10.52734 1.75781,10.24609 1.48047,9.96875 1.23047,9.66406 1.01172,9.33594 0.79297,9.01172 0.60547,8.66406 0.45703,8.30078 0.30469,7.93359 0.19141,7.55859 0.11328,7.17187 0.03908,6.78515 0,6.39453 0,6.0039 Z m 0,0"
           id="path1-3"
           style="fill:#ffffff;fill-opacity:1" /><path
           fill="#ffffff"
           d="m 8.8538666,9.0041491 h -3.4375 v -6.203125 h 1.203125 v 5.140625 h 2.0625 z m 0,0"
           id="path2"
           style="fill:#000000;fill-opacity:1;stroke:none;stroke-opacity:1" /><path
           fill="#ffffff"
           d="M 10.966965,9.0041491 H 9.7638397 v -6.203125 h 1.2031253 z m 0,0"
           id="path3-8"
           style="fill:#000000;fill-opacity:1;stroke:none;stroke-opacity:1" /><path
           fill="#ffffff"
           d="m 17.635117,2.8010241 -2.3125,6.234375 h -1.21875 l -2.265625,-6.09375 1.25,-0.203125 1.671875,4.75 1.609375,-4.6875 z m 0,0"
           id="path4"
           style="fill:#000000;fill-opacity:1;stroke:none;stroke-opacity:1" /><path
           fill="#ffffff"
           d="m 22.175171,9.0041491 h -3.703125 v -6.203125 h 3.609375 v 1 h -2.421875 v 1.484375 h 1.859375 l 0.171875,1 h -2.03125 v 1.71875 h 2.515625 z m 0,0"
           id="path5-5"
           style="fill:#000000;fill-opacity:1;stroke:none;stroke-opacity:1" /></g><g
         style="fill:#ffffff;fill-opacity:1"
         id="g2"
         transform="matrix(0.61184255,0,0,0.61184255,428.06581,108.06616)"><g
           id="g3"
           style="fill:#ffffff;fill-opacity:1">
	<circle
   cx="182.94501"
   cy="286.681"
   r="41.493999"
   id="circle1"
   style="fill:#ffffff;fill-opacity:1" />
	<path
   d="m 182.946,176.029 c -35.658,0 -69.337,17.345 -90.09,46.398 -5.921,8.288 -4.001,19.806 4.286,25.726 3.249,2.321 6.994,3.438 10.704,3.438 5.754,0 11.423,-2.686 15.021,-7.724 13.846,-19.383 36.305,-30.954 60.078,-30.954 23.775,0 46.233,11.571 60.077,30.953 5.919,8.286 17.437,10.209 25.726,4.288 8.288,-5.92 10.208,-17.438 4.288,-25.726 -20.751,-29.055 -54.43,-46.399 -90.09,-46.399 z"
   id="path1-6"
   style="fill:#ffffff;fill-opacity:1" />
	<path
   d="m 182.946,106.873 c -50.938,0 -99.694,21.749 -133.77,59.67 -6.807,7.576 -6.185,19.236 1.392,26.044 3.523,3.166 7.929,4.725 12.32,4.725 5.051,-0.001 10.082,-2.063 13.723,-6.116 27.091,-30.148 65.849,-47.439 106.336,-47.439 40.487,0 79.246,17.291 106.338,47.438 6.808,7.576 18.468,8.198 26.043,1.391 7.576,-6.808 8.198,-18.468 1.391,-26.043 -34.078,-37.922 -82.836,-59.67 -133.773,-59.67 z"
   id="path2-2"
   style="fill:#ffffff;fill-opacity:1" />
	<path
   d="M 360.611,112.293 C 313.402,64.201 250.306,37.716 182.946,37.716 c -67.357,0 -130.453,26.485 -177.664,74.579 -7.135,7.269 -7.027,18.944 0.241,26.079 3.59,3.524 8.255,5.282 12.918,5.281 4.776,0 9.551,-1.845 13.161,-5.522 40.22,-40.971 93.968,-63.534 151.344,-63.534 57.379,0 111.127,22.563 151.343,63.532 7.136,7.269 18.812,7.376 26.08,0.242 7.268,-7.135 7.376,-18.811 0.242,-26.08 z"
   id="path3-9"
   style="fill:#ffffff;fill-opacity:1" />
</g></g></g></g><style
     type="text/css"
     id="style2">g.page-margin{font-family:Times;} g.ending, g.fing, g.reh, g.tempo{font-weight:bold;} g.dir, g.dynam, g.mNum{font-style:italic;} g.label{font-weight:normal;}</style></svg>
