<?xml version="1.0" encoding="UTF-8" standalone="no"?>
<!-- Created with Inkscape (http://www.inkscape.org/) -->

<svg
   width="1070"
   height="780"
   viewBox="0 0 1070 780"
   version="1.1"
   id="svg1"
   xml:space="preserve"
   sodipodi:docname="bloxelcomwiki.svg"
   inkscape:version="1.3.2 (091e20ef0f, 2023-11-25)"
   xmlns:inkscape="http://www.inkscape.org/namespaces/inkscape"
   xmlns:sodipodi="http://sodipodi.sourceforge.net/DTD/sodipodi-0.dtd"
   xmlns="http://www.w3.org/2000/svg"
   xmlns:svg="http://www.w3.org/2000/svg"><sodipodi:namedview
     id="namedview1"
     pagecolor="#210021"
     bordercolor="#999999"
     borderopacity="1"
     inkscape:showpageshadow="2"
     inkscape:pageopacity="0"
     inkscape:pagecheckerboard="0"
     inkscape:deskcolor="#d1d1d1"
     inkscape:document-units="px"
     showgrid="true"
     showguides="false"
     inkscape:zoom="0.81481481"
     inkscape:cx="578.65909"
     inkscape:cy="445.5"
     inkscape:window-width="1920"
     inkscape:window-height="1040"
     inkscape:window-x="0"
     inkscape:window-y="0"
     inkscape:window-maximized="0"
     inkscape:current-layer="layer1"><inkscape:grid
       id="grid3"
       units="px"
       originx="0"
       originy="0"
       spacingx="1"
       spacingy="1"
       empcolor="#0099e5"
       empopacity="0.30196078"
       color="#0099e5"
       opacity="0.14901961"
       empspacing="5"
       dotted="false"
       gridanglex="30"
       gridanglez="30"
       visible="true" /></sodipodi:namedview><defs
     id="defs1" /><g
     inkscape:label="Layer 1"
     inkscape:groupmode="layer"
     id="layer1"
     transform="translate(-4,-150)"><g
       style="fill:#ffffff;fill-opacity:1;stroke:none;stroke-width:14.4931;stroke-dasharray:none;stroke-opacity:1"
       id="g1"
       transform="matrix(2.1090022,0,0,2.1090022,0.58378423,-18.871751)"><g
         id="g21"
         style="fill:#ffffff;fill-opacity:1;stroke:none;stroke-width:14.4931;stroke-dasharray:none;stroke-opacity:1">
	<path
   d="m 481.89075,139.90702 h -8.28465 v -24.05573 c 0,-2.85233 -1.63549,-5.44838 -4.19789,-6.66296 C 401.56665,77.028272 323.90534,76.570723 255.76845,107.76561 187.63156,76.570723 109.97025,77.029254 42.128682,109.18833 c -2.562394,1.21458 -4.197882,3.81063 -4.197882,6.66296 v 24.05573 h -8.284653 c -12.62971,0 -22.9046296,10.35084 -22.9046296,23.07387 V 422.1937 c 0,12.72303 10.2749196,23.07387 22.9046296,23.07387 H 481.89075 c 12.62971,0 22.90463,-10.35084 22.90463,-23.07387 V 162.98089 c 0,-12.72303 -10.27492,-23.07387 -22.90463,-23.07387 z m -429.339974,7.38364 c 0,-0.007 9.75e-4,-0.0128 9.75e-4,-0.0196 z M 225.0665,430.53957 H 29.646147 c -4.568255,0 -8.284653,-3.74386 -8.284653,-8.34587 V 162.98089 c 0,-4.60201 3.716398,-8.34587 8.284653,-8.34587 H 37.9308 v 243.99388 7.85493 c 0,4.06689 3.272925,7.364 7.309988,7.364 H 225.0665 Z M 62.58008,399.11983 c 56.62707,-22.51813 119.22104,-22.51911 175.84908,0 z m 209.27034,31.41974 h -32.16394 v -16.69174 h 32.16394 z m 177.1064,-31.41974 H 273.10774 c 56.62707,-22.51813 119.22103,-22.51813 175.84908,0 z m 41.21858,23.07387 c 0,4.60201 -3.7164,8.34587 -8.28465,8.34587 H 286.4704 v -16.69174 h 179.82571 c 4.03706,0 7.30999,-3.29711 7.30999,-7.364 V 398.6289 154.63502 h 8.28465 c 4.56825,0 8.28465,3.74386 8.28465,8.34587 z"
   id="path1-3"
   style="fill:#ffffff;fill-opacity:1;stroke:#4a86ef;stroke-width:9.2769;stroke-dasharray:none;stroke-opacity:1"
   sodipodi:nodetypes="scscccscssssssssccccssssccsscccccccccccccssccssccsss" />
	
	
	
	
	
	
	
	
	
	
	
	
	<path
   d="m 93.96,317.749 c -8.302,1.74 -16.615,3.911 -24.708,6.454 -3.952,1.242 -6.148,5.452 -4.907,9.403 1.007,3.204 3.964,5.254 7.153,5.254 0.745,0 1.502,-0.112 2.25,-0.347 7.628,-2.396 15.464,-4.443 23.288,-6.083 4.054,-0.85 6.652,-4.825 5.802,-8.879 -0.85,-4.054 -4.827,-6.651 -8.878,-5.802 z"
   id="path14"
   style="fill:#ffffff;fill-opacity:1;stroke:none;stroke-width:14.4931;stroke-dasharray:none;stroke-opacity:1" />
	<path
   d="m 223.502,338.859 c 3.189,0 6.147,-2.051 7.153,-5.254 1.241,-3.952 -0.956,-8.162 -4.907,-9.403 -32.073,-10.076 -65.331,-13.842 -98.844,-11.188 -4.129,0.326 -7.211,3.938 -6.885,8.068 0.326,4.13 3.934,7.213 8.068,6.885 31.591,-2.499 62.935,1.048 93.165,10.546 0.748,0.235 1.505,0.346 2.25,0.346 z"
   id="path15"
   style="fill:#ffffff;fill-opacity:1;stroke:none;stroke-width:14.4931;stroke-dasharray:none;stroke-opacity:1" />
	<path
   d="m 71.498,306.767 c 0.745,0 1.502,-0.112 2.25,-0.347 48.249,-15.159 99.256,-15.159 147.504,0 3.952,1.24 8.162,-0.956 9.403,-4.907 1.241,-3.952 -0.956,-8.162 -4.907,-9.403 -51.191,-16.083 -105.307,-16.083 -156.496,0 -3.952,1.241 -6.149,5.451 -4.907,9.403 1.007,3.203 3.964,5.254 7.153,5.254 z"
   id="path16"
   style="fill:#ffffff;fill-opacity:1;stroke:none;stroke-width:14.4931;stroke-dasharray:none;stroke-opacity:1" />
	<path
   d="m 71.498,274.859 c 0.745,0 1.502,-0.112 2.25,-0.347 27.681,-8.697 56.411,-12.412 85.399,-11.037 4.158,0.192 7.65,-2.999 7.847,-7.137 0.196,-4.138 -2.999,-7.65 -7.137,-7.847 -30.756,-1.456 -61.236,2.483 -90.605,11.71 -3.952,1.242 -6.149,5.452 -4.907,9.403 1.007,3.206 3.964,5.255 7.153,5.255 z"
   id="path17"
   style="fill:#ffffff;fill-opacity:1;stroke:none;stroke-width:14.4931;stroke-dasharray:none;stroke-opacity:1" />
	<path
   d="m 190.194,266.932 c 10.467,1.844 20.917,4.395 31.058,7.581 0.749,0.235 1.505,0.347 2.25,0.347 3.189,0 6.147,-2.051 7.153,-5.254 1.241,-3.952 -0.956,-8.162 -4.907,-9.403 -10.76,-3.38 -21.846,-6.086 -32.952,-8.043 -4.079,-0.719 -7.969,2.006 -8.688,6.085 -0.718,4.078 2.006,7.968 6.086,8.687 z"
   id="path18"
   style="fill:#ffffff;fill-opacity:1;stroke:none;stroke-width:14.4931;stroke-dasharray:none;stroke-opacity:1" />
	<path
   d="m 118.678,185.702 c -16.732,1.858 -33.362,5.36 -49.426,10.407 -3.952,1.241 -6.148,5.451 -4.907,9.403 1.007,3.204 3.964,5.254 7.153,5.254 0.745,0 1.502,-0.112 2.25,-0.347 15.141,-4.757 30.815,-8.057 46.585,-9.809 4.117,-0.457 7.083,-4.165 6.626,-8.282 -0.456,-4.116 -4.171,-7.084 -8.281,-6.626 z"
   id="path19"
   style="fill:#ffffff;fill-opacity:1;stroke:none;stroke-width:14.4931;stroke-dasharray:none;stroke-opacity:1" />
	
	
</g></g><g
       id="g2"
       transform="matrix(0.42684208,0,0,0.42684208,309.67501,279.23842)"><path
         style="display:inline;fill:#2222b6;fill-opacity:1;stroke:none;stroke-width:32.8717;stroke-linecap:butt;stroke-linejoin:bevel;stroke-dasharray:none;stroke-dashoffset:0;stroke-opacity:1;paint-order:markers fill stroke"
         d="m 397.88296,56.842804 c -111.341,53.357636 -209.87061,463.305206 156.07751,479.412186 0,0 57.61638,-97.46115 207.00544,-142.44299 149.38905,-44.98193 286.50749,274.7461 293.91169,226.32311 7.4042,-48.42291 -19.8839,-303.0187 -63.59364,-364.23944 C 947.57416,194.67494 758.62806,60.498544 705.72694,47.721424 652.82578,34.944234 509.2238,3.4852136 397.88296,56.842804 Z"
         id="path5-3-5-2-7-6"
         sodipodi:nodetypes="zczzzzz" /><path
         style="display:inline;fill:#2ef248;fill-opacity:1;stroke:none;stroke-width:33.2603;stroke-linecap:butt;stroke-linejoin:bevel;stroke-dasharray:none;stroke-dashoffset:0;stroke-opacity:1;paint-order:markers fill stroke"
         d="M 1042.4406,665.39823 C 1057.9661,541.15084 763.51778,234.37552 549.80218,538.84294 c 0,0 51.31267,102.19712 7.87343,254.46424 -43.43925,152.26711 -383.31012,123.00191 -346.21557,155.61434 37.09456,32.61243 261.5926,120.53708 337.50002,116.34638 75.90742,-4.1907 293.1879,-93.09893 332.96005,-131.44279 39.77215,-38.34386 144.99499,-144.17949 160.52049,-268.42688 z"
         id="path5-3-5"
         sodipodi:nodetypes="zczzzzz" /><path
         style="display:inline;fill:#ff0000;fill-opacity:1;stroke:none;stroke-width:33.2603;stroke-linecap:butt;stroke-linejoin:bevel;stroke-dasharray:none;stroke-dashoffset:0;stroke-opacity:1;paint-order:markers fill stroke"
         d="m 197.51033,910.27607 c 102.61346,71.75608 511.39378,-45.33193 341.98427,-376.50445 0,0 -114.33147,-2.35687 -228.68434,-111.88159 C 196.45733,312.3654 407.96839,32.102857 361.80675,49.672223 315.64516,67.2415 106.1482,218.09092 74.402406,287.16842 42.656612,356.24591 19.795248,589.89703 35.125444,642.97298 50.455601,696.04901 94.89696,838.52005 197.51033,910.27607 Z"
         id="path5-3-5-2"
         sodipodi:nodetypes="zczzzzz" /><ellipse
         style="display:inline;opacity:1;fill:none;fill-opacity:1;stroke:#ffffff;stroke-width:35.4078;stroke-dasharray:none;stroke-opacity:1;paint-order:markers fill stroke"
         id="path1"
         ry="522.22308"
         rx="520.9859"
         cy="540.62518"
         cx="539.60236" /><path
         style="display:inline;fill:none;fill-opacity:1;stroke:#ffffff;stroke-width:35;stroke-linecap:butt;stroke-linejoin:bevel;stroke-dasharray:none;stroke-dashoffset:0;stroke-opacity:1;paint-order:markers fill stroke"
         d="M 543.91455,540.82198 C 754.81121,250.52769 1074.0816,478.18202 1040.1107,686.62067"
         id="path5-3"
         sodipodi:nodetypes="cc" /><path
         style="display:inline;fill:none;fill-opacity:1;stroke:#ffffff;stroke-width:35;stroke-linecap:butt;stroke-linejoin:bevel;stroke-dasharray:none;stroke-dashoffset:0;stroke-opacity:1;paint-order:markers fill stroke"
         d="M 543.76919,540.49636 C 122.77515,475.14653 282.14506,-5.0169985 531.69255,19.13572"
         id="path5-3-9"
         sodipodi:nodetypes="cc" /><path
         style="display:inline;fill:none;fill-opacity:1;stroke:#ffffff;stroke-width:35;stroke-linecap:butt;stroke-linejoin:bevel;stroke-dasharray:none;stroke-dashoffset:0;stroke-opacity:1;paint-order:markers fill stroke"
         d="M 543.95625,540.73248 C 686.20032,810.46414 358.03116,1053.2614 132.9346,865.33512"
         id="path5-3-2"
         sodipodi:nodetypes="cc" /><path
         sodipodi:type="star"
         style="opacity:1;fill:#ffffff;fill-opacity:1;stroke:#ffffff;stroke-width:2.01503;stroke-linecap:butt;stroke-linejoin:miter;stroke-dasharray:none;stroke-dashoffset:0;stroke-opacity:1;paint-order:markers fill stroke"
         id="path5"
         inkscape:flatsided="false"
         sodipodi:sides="5"
         sodipodi:cx="531.89807"
         sodipodi:cy="255.39737"
         sodipodi:r1="146.12825"
         sodipodi:r2="50.373566"
         sodipodi:arg1="0.93926231"
         sodipodi:arg2="1.569947"
         inkscape:rounded="0"
         inkscape:randomized="0"
         d="m 618.16979,373.34081 -86.22894,-67.56989 -85.55423,68.12226 37.61658,-102.88884 -91.22583,-60.31597 109.47726,3.98109 29.17357,-105.39959 30.04409,105.3493 109.25609,-4.82456 -90.909,61.12835 z"
         inkscape:transform-center-x="0.23129818"
         inkscape:transform-center-y="-4.5651083"
         transform="matrix(0.51295675,0,0,0.48012568,272.66955,148.34448)" /><path
         sodipodi:type="star"
         style="fill:#ffffff;fill-opacity:1;stroke:#ffffff;stroke-width:2.01503;stroke-linecap:butt;stroke-linejoin:miter;stroke-dasharray:none;stroke-dashoffset:0;stroke-opacity:1;paint-order:markers fill stroke"
         id="path5-1"
         inkscape:flatsided="false"
         sodipodi:sides="5"
         sodipodi:cx="531.89807"
         sodipodi:cy="255.39737"
         sodipodi:r1="146.12825"
         sodipodi:r2="50.373566"
         sodipodi:arg1="0.93926231"
         sodipodi:arg2="1.569947"
         inkscape:rounded="0"
         inkscape:randomized="0"
         d="m 618.16979,373.34081 -86.22894,-67.56989 -85.55423,68.12226 37.61658,-102.88884 -91.22583,-60.31597 109.47726,3.98109 29.17357,-105.39959 30.04409,105.3493 109.25609,-4.82456 -90.909,61.12835 z"
         inkscape:transform-center-x="0.23129818"
         inkscape:transform-center-y="-4.5651083"
         transform="matrix(0.51295675,0,0,0.48012568,497.73194,547.12151)" /><path
         sodipodi:type="star"
         style="fill:#ffffff;fill-opacity:1;stroke:#ffffff;stroke-width:2.01503;stroke-linecap:butt;stroke-linejoin:miter;stroke-dasharray:none;stroke-dashoffset:0;stroke-opacity:1;paint-order:markers fill stroke"
         id="path5-1-1"
         inkscape:flatsided="false"
         sodipodi:sides="5"
         sodipodi:cx="531.89807"
         sodipodi:cy="255.39737"
         sodipodi:r1="146.12825"
         sodipodi:r2="50.373566"
         sodipodi:arg1="0.93926231"
         sodipodi:arg2="1.569947"
         inkscape:rounded="0"
         inkscape:randomized="0"
         d="m 618.16979,373.34081 -86.22894,-67.56989 -85.55423,68.12226 37.61658,-102.88884 -91.22583,-60.31597 109.47726,3.98109 29.17357,-105.39959 30.04409,105.3493 109.25609,-4.82456 -90.909,61.12835 z"
         inkscape:transform-center-x="0.23129818"
         inkscape:transform-center-y="-4.5651083"
         transform="matrix(0.51295675,0,0,0.48012568,41.59079,547.37041)" /></g></g></svg>
