<?xml version="1.0" encoding="UTF-8" standalone="no"?>
<!-- Created with Inkscape (http://www.inkscape.org/) -->

<svg
   width="1080"
   height="1080"
   viewBox="0 0 1080 1080"
   version="1.1"
   id="svg1"
   xml:space="preserve"
   sodipodi:docname="bloxelcomcanada.svg"
   inkscape:version="1.3.2 (091e20ef0f, 2023-11-25)"
   xmlns:inkscape="http://www.inkscape.org/namespaces/inkscape"
   xmlns:sodipodi="http://sodipodi.sourceforge.net/DTD/sodipodi-0.dtd"
   xmlns="http://www.w3.org/2000/svg"
   xmlns:svg="http://www.w3.org/2000/svg"><sodipodi:namedview
     id="namedview1"
     pagecolor="#210021"
     bordercolor="#999999"
     borderopacity="1"
     inkscape:showpageshadow="2"
     inkscape:pageopacity="0"
     inkscape:pagecheckerboard="0"
     inkscape:deskcolor="#d1d1d1"
     inkscape:document-units="px"
     showgrid="true"
     showguides="false"
     inkscape:zoom="0.57616108"
     inkscape:cx="337.57921"
     inkscape:cy="498.12459"
     inkscape:window-width="1920"
     inkscape:window-height="1040"
     inkscape:window-x="0"
     inkscape:window-y="0"
     inkscape:window-maximized="0"
     inkscape:current-layer="layer1"><inkscape:grid
       id="grid3"
       units="px"
       originx="0"
       originy="0"
       spacingx="1"
       spacingy="1"
       empcolor="#0099e5"
       empopacity="0.30196078"
       color="#0099e5"
       opacity="0.14901961"
       empspacing="5"
       dotted="false"
       gridanglex="30"
       gridanglez="30"
       visible="true" /></sodipodi:namedview><defs
     id="defs1" /><g
     inkscape:label="Layer 1"
     inkscape:groupmode="layer"
     id="layer1"><path
       style="display:inline;fill:#ff0000;fill-opacity:1;stroke:none;stroke-width:32.8717;stroke-linecap:butt;stroke-linejoin:bevel;stroke-dasharray:none;stroke-dashoffset:0;stroke-opacity:1;paint-order:markers fill stroke"
       d="m 397.88296,56.842804 c -111.341,53.357636 -209.87061,463.305206 156.07751,479.412186 0,0 57.61638,-97.46115 207.00544,-142.44299 149.38905,-44.98193 286.50749,274.7461 293.91169,226.32311 7.4042,-48.42291 -19.8839,-303.0187 -63.59364,-364.23944 C 947.57416,194.67494 758.62806,60.498544 705.72694,47.721424 652.82578,34.944234 509.2238,3.4852136 397.88296,56.842804 Z"
       id="path5-3-5-2-7-6"
       sodipodi:nodetypes="zczzzzz" /><path
       style="display:inline;fill:#ff0000;fill-opacity:1;stroke:none;stroke-width:33.2603;stroke-linecap:butt;stroke-linejoin:bevel;stroke-dasharray:none;stroke-dashoffset:0;stroke-opacity:1;paint-order:markers fill stroke"
       d="M 1042.4406,665.39823 C 1057.9661,541.15084 763.51778,234.37552 549.80218,538.84294 c 0,0 46.89257,97.4726 3.45333,249.73972 -43.43925,152.26711 -378.89002,127.72643 -341.79547,160.33886 37.09456,32.61243 261.5926,120.53708 337.50002,116.34638 75.90742,-4.1907 293.1879,-93.09893 332.96005,-131.44279 39.77215,-38.34386 144.99499,-144.17949 160.52049,-268.42688 z"
       id="path5-3-5"
       sodipodi:nodetypes="zczzzzz" /><path
       style="display:inline;fill:#ff0000;fill-opacity:1;stroke:none;stroke-width:33.2603;stroke-linecap:butt;stroke-linejoin:bevel;stroke-dasharray:none;stroke-dashoffset:0;stroke-opacity:1;paint-order:markers fill stroke"
       d="m 197.51033,910.27607 c 102.61346,71.75608 511.39378,-45.33193 341.98427,-376.50445 0,0 -114.33147,-2.35687 -228.68434,-111.88159 C 196.45733,312.3654 407.96839,32.102857 361.80675,49.672223 315.64516,67.2415 106.1482,218.09092 74.402406,287.16842 42.656612,356.24591 19.795248,589.89703 35.125444,642.97298 50.455601,696.04901 94.89696,838.52005 197.51033,910.27607 Z"
       id="path5-3-5-2"
       sodipodi:nodetypes="zczzzzz" /><ellipse
       style="display:inline;opacity:1;fill:none;fill-opacity:1;stroke:#ffffff;stroke-width:35.4078;stroke-dasharray:none;stroke-opacity:1;paint-order:markers fill stroke"
       id="path1"
       ry="522.22308"
       rx="520.9859"
       cy="540.62518"
       cx="539.60236" /><path
       style="display:inline;fill:none;fill-opacity:1;stroke:#ffffff;stroke-width:35;stroke-linecap:butt;stroke-linejoin:bevel;stroke-dasharray:none;stroke-dashoffset:0;stroke-opacity:1;paint-order:markers fill stroke"
       d="M 551.90114,546.37463 C 762.7978,256.08034 1074.0816,478.18202 1040.1107,686.62067"
       id="path5-3"
       sodipodi:nodetypes="cc" /><path
       style="display:inline;fill:none;fill-opacity:1;stroke:#ffffff;stroke-width:35;stroke-linecap:butt;stroke-linejoin:bevel;stroke-dasharray:none;stroke-dashoffset:0;stroke-opacity:1;paint-order:markers fill stroke"
       d="M 543.76919,540.49636 C 122.77515,475.14653 282.14506,-5.0169985 531.69255,19.13572"
       id="path5-3-9"
       sodipodi:nodetypes="cc" /><path
       style="display:inline;fill:none;fill-opacity:1;stroke:#ffffff;stroke-width:35;stroke-linecap:butt;stroke-linejoin:bevel;stroke-dasharray:none;stroke-dashoffset:0;stroke-opacity:1;paint-order:markers fill stroke"
       d="m 467.76499,569.88557 c 70.0625,132.85666 102.19083,230.02577 12.5319,301.56222 -92.37072,73.70011 -233.13732,89.25029 -347.36229,-6.11267"
       id="path5-3-2"
       sodipodi:nodetypes="csc" /><path
       fill="#0065ff"
       d="m 526.369,881.52853 5.92623,-143.26114 c 0.47846,-10.06349 -8.76492,-17.97578 -19.00521,-16.26838 l -147.07618,25.06654 19.86129,-53.12115 c 1.65221,-4.33364 0.27533,-9.20626 -3.42434,-12.1183 L 221.53471,555.33132 257.83292,538.89696 c 5.07238,-2.32397 7.56759,-7.94512 5.8214,-13.11429 l -31.84653,-94.95409 92.80011,19.09041 c 5.18359,1.04786 10.4109,-1.59035 12.49891,-6.30815 l 17.97789,-41.0029 72.42515,75.36565 c 7.65259,7.82592 21.10636,1.12764 19.00519,-9.46219 l -34.92843,-174.63586 55.98824,31.37467 c 5.55324,3.15559 12.70132,1.09932 15.58084,-4.4821 l 56.84434,-108.23437 56.84434,108.23437 c 2.87952,5.58141 10.02759,7.63768 15.58083,4.4821 l 55.98825,-31.37467 -34.92844,174.63586 c -2.10117,10.58983 11.3526,17.28811 19.00519,9.46219 l 72.42516,-75.36565 17.97791,41.0029 c 2.08801,4.71779 7.31531,7.356 12.49889,6.30815 l 92.80012,-19.09041 -31.8465,94.95409 c -1.7462,5.16916 0.74898,10.79029 5.82133,13.11429 L 858.4653,555.33132 697.34927,681.8261 c -3.69967,2.91204 -5.07655,7.78466 -3.42434,12.1183 l 19.86128,53.12115 -147.07618,-25.06654 c -10.24029,-1.7074 -19.48366,6.20489 -19.0052,16.26838 l 4.02299,143.26114 z"
       id="path1-5"
       style="fill:#ff0000;fill-opacity:1;stroke:#ffffff;stroke-width:35.299;stroke-dasharray:none;stroke-opacity:1"
       sodipodi:nodetypes="cccccccccccccccccccccccccccccccccccccc" /></g></svg>
