<?xml version="1.0" encoding="UTF-8" standalone="no"?>
<!-- Created with Inkscape (http://www.inkscape.org/) -->

<svg
   width="1080"
   height="1080"
   viewBox="0 0 1080 1080"
   version="1.1"
   id="svg1"
   xml:space="preserve"
   sodipodi:docname="BloxelesteExtrasWatermark.svg"
   inkscape:version="1.3.2 (091e20ef0f, 2023-11-25)"
   inkscape:export-filename="../Images/BloxelesteExtrasWatermark.png"
   inkscape:export-xdpi="50"
   inkscape:export-ydpi="50"
   xmlns:inkscape="http://www.inkscape.org/namespaces/inkscape"
   xmlns:sodipodi="http://sodipodi.sourceforge.net/DTD/sodipodi-0.dtd"
   xmlns="http://www.w3.org/2000/svg"
   xmlns:svg="http://www.w3.org/2000/svg"><sodipodi:namedview
     id="namedview1"
     pagecolor="#210021"
     bordercolor="#999999"
     borderopacity="1"
     inkscape:showpageshadow="2"
     inkscape:pageopacity="0"
     inkscape:pagecheckerboard="0"
     inkscape:deskcolor="#d1d1d1"
     inkscape:document-units="px"
     showgrid="true"
     showguides="false"
     inkscape:zoom="0.40740741"
     inkscape:cx="274.90909"
     inkscape:cy="598.90909"
     inkscape:window-width="1920"
     inkscape:window-height="1040"
     inkscape:window-x="0"
     inkscape:window-y="0"
     inkscape:window-maximized="0"
     inkscape:current-layer="layer1"><inkscape:grid
       id="grid3"
       units="px"
       originx="0"
       originy="0"
       spacingx="1"
       spacingy="1"
       empcolor="#0099e5"
       empopacity="0.30196078"
       color="#0099e5"
       opacity="0.14901961"
       empspacing="5"
       dotted="false"
       gridanglex="30"
       gridanglez="30"
       visible="true" /></sodipodi:namedview><defs
     id="defs1"><inkscape:perspective
       sodipodi:type="inkscape:persp3d"
       inkscape:vp_x="0 : 526.18109 : 1"
       inkscape:vp_y="0 : 1000 : 0"
       inkscape:vp_z="744.09448 : 526.18109 : 1"
       inkscape:persp3d-origin="372.04724 : 350.78739 : 1"
       id="perspective10" /></defs><g
     inkscape:label="Layer 1"
     inkscape:groupmode="layer"
     id="layer1"><rect
       style="fill:#fb7b48;fill-opacity:1;stroke:#ffffff;stroke-width:35.0713;stroke-dasharray:none;stroke-opacity:1"
       id="rect1"
       width="822.33746"
       height="815.9411"
       x="352.50723"
       y="-408.54288"
       transform="matrix(0.70657664,0.70763653,-0.70657664,0.70763653,0,0)"
       ry="137.50092" /><g
       id="g1"
       transform="matrix(0.68619383,0,0,0.68619383,169.72819,169.02634)"
       inkscape:label="g1"><path
         style="display:inline;fill:#e6e624;fill-opacity:1;stroke:none;stroke-width:32.8717;stroke-linecap:butt;stroke-linejoin:bevel;stroke-dasharray:none;stroke-dashoffset:0;stroke-opacity:1;paint-order:markers fill stroke"
         d="m 397.88296,56.842804 c -111.341,53.357636 -209.87061,463.305206 156.07751,479.412186 0,0 57.61638,-97.46115 207.00544,-142.44299 149.38905,-44.98193 286.50749,274.7461 293.91169,226.32311 7.4042,-48.42291 -19.8839,-303.0187 -63.59364,-364.23944 C 947.57416,194.67494 758.62806,60.498544 705.72694,47.721424 652.82578,34.944234 509.2238,3.4852136 397.88296,56.842804 Z"
         id="path5-3-5-2-7-6"
         sodipodi:nodetypes="zczzzzz" /><path
         style="display:inline;fill:#f0831f;fill-opacity:1;stroke:none;stroke-width:33.2603;stroke-linecap:butt;stroke-linejoin:bevel;stroke-dasharray:none;stroke-dashoffset:0;stroke-opacity:1;paint-order:markers fill stroke"
         d="M 1042.4406,665.39823 C 1057.9661,541.15084 763.51778,234.37552 549.80218,538.84294 c 0,0 51.31267,102.19712 7.87343,254.46424 -43.43925,152.26711 -383.31012,123.00191 -346.21557,155.61434 37.09456,32.61243 261.5926,120.53708 337.50002,116.34638 75.90742,-4.1907 293.1879,-93.09893 332.96005,-131.44279 39.77215,-38.34386 144.99499,-144.17949 160.52049,-268.42688 z"
         id="path5-3-5"
         sodipodi:nodetypes="zczzzzz" /><path
         style="display:inline;fill:#ea3715;fill-opacity:1;stroke:none;stroke-width:33.2603;stroke-linecap:butt;stroke-linejoin:bevel;stroke-dasharray:none;stroke-dashoffset:0;stroke-opacity:1;paint-order:markers fill stroke"
         d="m 197.51033,910.27607 c 102.61346,71.75608 511.39378,-45.33193 341.98427,-376.50445 0,0 -114.33147,-2.35687 -228.68434,-111.88159 C 196.45733,312.3654 407.96839,32.102857 361.80675,49.672223 315.64516,67.2415 106.1482,218.09092 74.402406,287.16842 42.656612,356.24591 19.795248,589.89703 35.125444,642.97298 50.455601,696.04901 94.89696,838.52005 197.51033,910.27607 Z"
         id="path5-3-5-2"
         sodipodi:nodetypes="zczzzzz" /><ellipse
         style="display:inline;opacity:1;fill:none;fill-opacity:1;stroke:#ffffff;stroke-width:35;stroke-dasharray:none;stroke-opacity:1;paint-order:markers fill stroke"
         id="path1"
         ry="522.22308"
         rx="520.9859"
         cy="540.62518"
         cx="539.60236" /><path
         style="display:inline;fill:none;fill-opacity:1;stroke:#ffffff;stroke-width:35;stroke-linecap:butt;stroke-linejoin:bevel;stroke-dasharray:none;stroke-dashoffset:0;stroke-opacity:1;paint-order:markers fill stroke"
         d="M 543.91455,540.82198 C 754.81121,250.52769 1074.0816,478.18202 1040.1107,686.62067"
         id="path5-3"
         sodipodi:nodetypes="cc" /><path
         style="display:inline;fill:none;fill-opacity:1;stroke:#ffffff;stroke-width:34;stroke-linecap:butt;stroke-linejoin:bevel;stroke-dasharray:none;stroke-dashoffset:0;stroke-opacity:1;paint-order:markers fill stroke"
         d="M 543.76919,540.49636 C 122.77515,475.14653 273.0754,9.5155147 522.71103,18.915414"
         id="path5-3-9"
         sodipodi:nodetypes="cc" /><path
         style="display:inline;fill:none;fill-opacity:1;stroke:#ffffff;stroke-width:35;stroke-linecap:butt;stroke-linejoin:bevel;stroke-dasharray:none;stroke-dashoffset:0;stroke-opacity:1;paint-order:markers fill stroke"
         d="M 543.95625,540.73248 C 686.20032,810.46414 358.03116,1053.2614 132.9346,865.33512"
         id="path5-3-2"
         sodipodi:nodetypes="cc" /><g
         inkscape:label="Layer 1"
         id="layer1-3"
         transform="matrix(3.049892,0,0,3.049892,158.7635,158.7635)"><path
           id="path2609"
           style="opacity:1;fill:#ffb812;fill-opacity:1;stroke:#ffffff;stroke-width:9.61264;stroke-linecap:butt;stroke-linejoin:miter;stroke-miterlimit:4;stroke-dasharray:none;stroke-dashoffset:0;stroke-opacity:1"
           d="M 125,24.483004 95.559142,53.923859 H 53.923859 V 95.559142 L 24.483004,125 53.923859,154.44086 v 41.63528 H 95.559142 L 125,225.517 154.44086,196.07614 h 41.63528 V 154.44086 L 225.517,125 196.07614,95.559142 V 53.923859 h -41.63528 z" /></g><g
         inkscape:label="Layer 1"
         id="layer1-3-3"
         transform="matrix(2.1296556,0,0,2.1296556,273.79305,273.79305)"><path
           id="path2609-5"
           style="opacity:1;fill:#ffb812;fill-opacity:1;stroke:#ffffff;stroke-width:16.4346;stroke-linecap:butt;stroke-linejoin:miter;stroke-miterlimit:4;stroke-dasharray:none;stroke-dashoffset:0;stroke-opacity:1"
           d="M 125,24.483004 95.559142,53.923859 H 53.923859 V 95.559142 L 24.483004,125 53.923859,154.44086 v 41.63528 H 95.559142 L 125,225.517 154.44086,196.07614 h 41.63528 V 154.44086 L 225.517,125 196.07614,95.559142 V 53.923859 h -41.63528 z" /></g></g></g></svg>
