<?xml version="1.0" encoding="UTF-8" standalone="no"?>
<!-- Created with Inkscape (http://www.inkscape.org/) -->

<svg
   width="3175mm"
   height="1080mm"
   viewBox="0 0 3175 1080"
   version="1.1"
   id="svg1"
   sodipodi:docname="bloxeleste-pl-text.svg"
   xml:space="preserve"
   inkscape:version="1.3.2 (091e20ef0f, 2023-11-25)"
   xmlns:inkscape="http://www.inkscape.org/namespaces/inkscape"
   xmlns:sodipodi="http://sodipodi.sourceforge.net/DTD/sodipodi-0.dtd"
   xmlns="http://www.w3.org/2000/svg"
   xmlns:svg="http://www.w3.org/2000/svg"><sodipodi:namedview
     id="namedview1"
     pagecolor="#100117"
     bordercolor="#000000"
     borderopacity="0.25"
     inkscape:showpageshadow="2"
     inkscape:pageopacity="0.0"
     inkscape:pagecheckerboard="0"
     inkscape:deskcolor="#d1d1d1"
     inkscape:document-units="mm"
     inkscape:zoom="0.097993828"
     inkscape:cx="5775.874"
     inkscape:cy="2714.4567"
     inkscape:window-width="1920"
     inkscape:window-height="1040"
     inkscape:window-x="0"
     inkscape:window-y="0"
     inkscape:window-maximized="0"
     inkscape:current-layer="layer1"
     showgrid="true"><inkscape:grid
       id="grid1"
       units="mm"
       originx="0"
       originy="0"
       spacingx="0.99999998"
       spacingy="1"
       empcolor="#0099e5"
       empopacity="0.30196078"
       color="#0099e5"
       opacity="0.14902"
       empspacing="5"
       dotted="false"
       gridanglex="30"
       gridanglez="30"
       visible="true" /></sodipodi:namedview><defs
     id="defs1"><rect
   x="4271.771"
   y="1394.1208"
   width="9461.9316"
   height="2215.1533"
   id="rect1" /><rect
   x="4271.771"
   y="1394.1208"
   width="9461.9316"
   height="2215.1533"
   id="rect1-2" /><inkscape:path-effect
   effect="mirror_symmetry"
   start_point="6392.7581,794.2506"
   end_point="6392.7581,6015.6462"
   center_point="6392.7581,3404.9484"
   id="path-effect3"
   is_visible="true"
   lpeversion="1.2"
   lpesatellites=""
   mode="free"
   discard_orig_path="false"
   fuse_paths="false"
   oposite_fuse="false"
   split_items="false"
   split_open="false"
   link_styles="false" /><inkscape:path-effect
   effect="mirror_symmetry"
   start_point="6439.4324,4738.8043"
   end_point="6439.4324,8554.1213"
   center_point="6439.4324,6646.4628"
   id="path-effect2"
   is_visible="true"
   lpeversion="1.2"
   lpesatellites=""
   mode="free"
   discard_orig_path="true"
   fuse_paths="false"
   oposite_fuse="false"
   split_items="false"
   split_open="false"
   link_styles="false" /><symbol
   id="E050-mpvf5d"
   viewBox="0 0 1000 1000"
   overflow="inherit"><path
     transform="scale(1,-1)"
     d="m 562,-21 c 0,89 -65,150 -155,150 7,-44 34,-203 55,-323 71,29 100,102 100,173 z M 420,-206 362,123 C 303,109 258,60 258,-1 c 0,-49 22,-75 61,-99 12,-8 22,-13 22,-22 0,-9 -9,-13 -17,-13 -80,0 -135,96 -135,166 0,94 62,190 153,217 -7,41 -14,88 -23,142 C 304,375 288,361 271,346 183,270 97,161 97,39 c 0,-151 122,-251 265,-251 19,0 38,2 58,6 z M 332,822 c -8,-31 -11,-65 -11,-102 0,-42 5,-81 11,-121 69,68 146,146 146,250 0,69 -24,118 -39,118 -52,0 -98,-105 -107,-145 z M 122,-513 c 0,66 45,123 115,123 75,0 116,-57 116,-111 0,-64 -47,-104 -94,-111 -3,-1 -5,-2 -5,-4 0,-1 2,-2 3,-3 2,0 23,-5 47,-5 101,0 154,55 154,159 0,53 -11,123 -30,219 -23,-4 -50,-7 -79,-7 -186,0 -349,147 -349,334 0,200 126,321 217,406 21,17 73,70 74,71 -17,112 -22,161 -22,215 0,84 18,212 82,288 33,39 64,51 71,51 18,0 47,-35 71,-86 16,-36 44,-110 44,-201 0,-159 -73,-284 -179,-395 9,-56 19,-115 29,-175 146,0 253,-102 253,-253 0,-103 -73,-205 -171,-237 6,-39 12,-69 15,-89 10,-57 16,-102 16,-141 0,-63 -14,-129 -68,-167 -36,-22 -77,-34 -124,-34 -135,0 -186,87 -186,153 z"
     id="path1-7" /></symbol>
	 <style
   type="text/css"
   id="style1">@import url(http://fonts.googleapis.com/css?family=Orbitron);</style></defs><g
     inkscape:label="Layer 1"
     inkscape:groupmode="layer"
     id="layer1"
     style="display:inline"><text
       xml:space="preserve"
       transform="matrix(0.26458333,0,0,0.26458333,24.427662,26.565192)"
       id="text1-1"
       style="font-style:normal;font-variant:normal;font-weight:normal;font-stretch:normal;font-size:1295px;font-family:Orbitron;-inkscape-font-specification:Orbitron;white-space:pre;shape-inside:url(#rect1-2);display:inline;fill:#ff0000;fill-opacity:1;stroke:none;stroke-width:35"><tspan
         x="4271.7715"
         y="2527.2461"
         id="tspan3"><tspan
           dx="0 0 0 0 0 0.00018310547 -0.00021362305 0.00030517578 0 -0.00012207031"
           id="tspan1">Bloxelcste</tspan></tspan></text><text
       xml:space="preserve"
       transform="matrix(0.26458333,0,0,0.26458333,14.287501,1.5875)"
       id="text1"
       style="font-style:normal;font-variant:normal;font-weight:normal;font-stretch:normal;font-size:1295px;font-family:Orbitron;-inkscape-font-specification:Orbitron;white-space:pre;shape-inside:url(#rect1);display:inline;fill:#ffffff;stroke:#ffffff;stroke-width:35"><tspan
         x="4271.7715"
         y="2527.2461"
         id="tspan5"><tspan
           dx="0 0 0 0 0 0.00018310547 -0.00021362305 -0.00012207031 0 0.00036621094"
           id="tspan4">Bloxeleste</tspan></tspan></text><text
       xml:space="preserve"
       style="font-style:normal;font-variant:normal;font-weight:normal;font-stretch:normal;font-size:171.002px;font-family:Orbitron;-inkscape-font-specification:Orbitron;fill:#ff0000;fill-opacity:1;stroke:none;stroke-width:4.62168"
       x="1158.46"
       y="859.69312"
       id="text4-7"><tspan
         sodipodi:role="line"
         id="tspan4-3"
         style="fill:#ff0000;fill-opacity:1;stroke-width:4.62168"
         x="1158.46"
         y="859.69312">Polska</tspan></text><text
       xml:space="preserve"
       style="font-style:normal;font-variant:normal;font-weight:normal;font-stretch:normal;font-size:171.002px;font-family:Orbitron;-inkscape-font-specification:Orbitron;fill:#ffffff;fill-opacity:1;stroke:none;stroke-width:4.62168"
       x="1150.8727"
       y="849.15839"
       id="text4"><tspan
         sodipodi:role="line"
         style="fill:#ffffff;fill-opacity:1;stroke-width:4.62168"
         x="1150.8727"
         y="849.15839"
         id="tspan2">Polska</tspan></text><g
       inkscape:label="Layer 1"
       id="layer1-5"
       transform="matrix(1.0006887,0,0,1.0006887,-0.91318418,-0.69868109)"><path
         style="display:inline;fill:#ff0000;fill-opacity:1;stroke:none;stroke-width:32.8717;stroke-linecap:butt;stroke-linejoin:bevel;stroke-dasharray:none;stroke-dashoffset:0;stroke-opacity:1;paint-order:markers fill stroke"
         d="M 392.76104,56.516587 C 281.42004,109.87423 182.89043,519.8218 548.83855,535.92878 c 0,0 57.61638,-97.46115 207.00544,-142.44299 149.38905,-44.98193 286.50751,274.7461 293.91171,226.32311 7.4042,-48.42291 -19.8839,-303.0187 -63.59366,-364.23944 C 942.45224,194.34873 753.50614,60.172325 700.60502,47.39521 647.70386,34.618023 504.10188,3.1589965 392.76104,56.516587 Z"
         id="path5-3-5-2-7"
         sodipodi:nodetypes="zczzzzz" /><path
         style="display:inline;fill:#ff0000;fill-opacity:1;stroke:none;stroke-width:33.2603;stroke-linecap:butt;stroke-linejoin:bevel;stroke-dasharray:none;stroke-dashoffset:0;stroke-opacity:1;paint-order:markers fill stroke"
         d="M 1042.4406,665.39823 C 1057.9661,541.15084 763.51778,234.37552 549.80218,538.84294 c 0,0 51.31267,102.19712 7.87343,254.46424 -43.43925,152.26711 -383.31012,123.00191 -346.21557,155.61434 37.09456,32.61243 261.5926,120.53708 337.50002,116.34638 75.90742,-4.1907 293.1879,-93.09893 332.96005,-131.44279 39.77215,-38.34386 144.99499,-144.17949 160.52049,-268.42688 z"
         id="path5-3-5"
         sodipodi:nodetypes="zczzzzz" /><path
         style="display:inline;fill:#ff0000;fill-opacity:1;stroke:none;stroke-width:33.2603;stroke-linecap:butt;stroke-linejoin:bevel;stroke-dasharray:none;stroke-dashoffset:0;stroke-opacity:1;paint-order:markers fill stroke"
         d="m 197.51033,910.27607 c 102.61346,71.75608 511.39378,-45.33193 341.98427,-376.50445 0,0 -114.33147,-2.35687 -228.68434,-111.88159 C 196.45733,312.3654 407.96839,32.102857 361.80675,49.672223 315.64516,67.2415 106.1482,218.09092 74.402406,287.16842 42.656612,356.24591 19.795248,589.89703 35.125444,642.97298 50.455601,696.04901 94.89696,838.52005 197.51033,910.27607 Z"
         id="path5-3-5-2"
         sodipodi:nodetypes="zczzzzz" /><ellipse
         style="display:inline;opacity:1;fill:none;fill-opacity:1;stroke:#ffffff;stroke-width:35.4078;stroke-dasharray:none;stroke-opacity:1;paint-order:markers fill stroke"
         id="path1"
         ry="522.22308"
         rx="520.9859"
         cy="540.62518"
         cx="539.60236" /><path
         style="display:inline;fill:none;fill-opacity:1;stroke:#ffffff;stroke-width:35;stroke-linecap:butt;stroke-linejoin:bevel;stroke-dasharray:none;stroke-dashoffset:0;stroke-opacity:1;paint-order:markers fill stroke"
         d="M 543.91455,540.82198 C 754.81121,250.52769 1074.0816,478.18202 1040.1107,686.62067"
         id="path5-3"
         sodipodi:nodetypes="cc" /><path
         style="display:inline;fill:none;fill-opacity:1;stroke:#ffffff;stroke-width:35;stroke-linecap:butt;stroke-linejoin:bevel;stroke-dasharray:none;stroke-dashoffset:0;stroke-opacity:1;paint-order:markers fill stroke"
         d="M 543.76919,540.49636 C 122.77515,475.14653 282.14506,-5.0169985 531.69255,19.13572"
         id="path5-3-9"
         sodipodi:nodetypes="cc" /><path
         style="display:inline;fill:none;fill-opacity:1;stroke:#ffffff;stroke-width:35;stroke-linecap:butt;stroke-linejoin:bevel;stroke-dasharray:none;stroke-dashoffset:0;stroke-opacity:1;paint-order:markers fill stroke"
         d="M 543.95625,540.73248 C 686.20032,810.46414 358.03116,1053.2614 132.9346,865.33512"
         id="path5-3-2"
         sodipodi:nodetypes="cc" /><circle
         style="fill:#ffffff;fill-opacity:1;stroke:none;stroke-opacity:1"
         id="path2-3"
         cx="543.25757"
         cy="271.61871"
         r="56.753605" /><circle
         style="fill:#ffffff;fill-opacity:1;stroke:none;stroke-opacity:1"
         id="path2-6"
         cx="770.49994"
         cy="666.21484"
         r="56.753605" /><circle
         style="fill:#ffffff;fill-opacity:1;stroke:none;stroke-opacity:1"
         id="path2-6-9"
         cx="314.08279"
         cy="668.40649"
         r="56.753605" /></g></g><style
     type="text/css"
     id="style2">g.page-margin{font-family:Times;} g.ending, g.fing, g.reh, g.tempo{font-weight:bold;} g.dir, g.dynam, g.mNum{font-style:italic;} g.label{font-weight:normal;}</style></svg>
