<?xml version="1.0" encoding="UTF-8" standalone="no"?>
<!-- Created with Inkscape (http://www.inkscape.org/) -->

<svg
   width="1080"
   height="1080"
   viewBox="0 0 1080 1080"
   version="1.1"
   id="svg1"
   xml:space="preserve"
   sodipodi:docname="bloxelbeatsunknown.svg"
   inkscape:version="1.3.2 (091e20ef0f, 2023-11-25)"
   xmlns:inkscape="http://www.inkscape.org/namespaces/inkscape"
   xmlns:sodipodi="http://sodipodi.sourceforge.net/DTD/sodipodi-0.dtd"
   xmlns="http://www.w3.org/2000/svg"
   xmlns:svg="http://www.w3.org/2000/svg"><sodipodi:namedview
     id="namedview1"
     pagecolor="#210021"
     bordercolor="#999999"
     borderopacity="1"
     inkscape:showpageshadow="2"
     inkscape:pageopacity="0"
     inkscape:pagecheckerboard="0"
     inkscape:deskcolor="#d1d1d1"
     inkscape:document-units="px"
     showgrid="true"
     showguides="false"
     inkscape:zoom="0.57616108"
     inkscape:cx="358.40672"
     inkscape:cy="565.81399"
     inkscape:window-width="1920"
     inkscape:window-height="1040"
     inkscape:window-x="0"
     inkscape:window-y="0"
     inkscape:window-maximized="0"
     inkscape:current-layer="layer1"><inkscape:grid
       id="grid3"
       units="px"
       originx="0"
       originy="0"
       spacingx="1"
       spacingy="1"
       empcolor="#0099e5"
       empopacity="0.30196078"
       color="#0099e5"
       opacity="0.14902"
       empspacing="5"
       dotted="false"
       gridanglex="30"
       gridanglez="30"
       visible="true" /></sodipodi:namedview><defs
     id="defs1"><symbol
       id="E050-mpvf5d"
       viewBox="0 0 1000 1000"
       overflow="inherit"><path
         transform="scale(1,-1)"
         d="M562 -21c0 89 -65 150 -155 150c7 -44 34 -203 55 -323c71 29 100 102 100 173zM420 -206l-58 329c-59 -14 -104 -63 -104 -124c0 -49 22 -75 61 -99c12 -8 22 -13 22 -22s-9 -13 -17 -13c-80 0 -135 96 -135 166c0 94 62 190 153 217c-7 41 -14 88 -23 142 c-15 -15 -31 -29 -48 -44c-88 -76 -174 -185 -174 -307c0 -151 122 -251 265 -251c19 0 38 2 58 6zM332 822c-8 -31 -11 -65 -11 -102c0 -42 5 -81 11 -121c69 68 146 146 146 250c0 69 -24 118 -39 118c-52 0 -98 -105 -107 -145zM122 -513c0 66 45 123 115 123 c75 0 116 -57 116 -111c0 -64 -47 -104 -94 -111c-3 -1 -5 -2 -5 -4c0 -1 2 -2 3 -3c2 0 23 -5 47 -5c101 0 154 55 154 159c0 53 -11 123 -30 219c-23 -4 -50 -7 -79 -7c-186 0 -349 147 -349 334c0 200 126 321 217 406c21 17 73 70 74 71c-17 112 -22 161 -22 215 c0 84 18 212 82 288c33 39 64 51 71 51c18 0 47 -35 71 -86c16 -36 44 -110 44 -201c0 -159 -73 -284 -179 -395c9 -56 19 -115 29 -175c146 0 253 -102 253 -253c0 -103 -73 -205 -171 -237c6 -39 12 -69 15 -89c10 -57 16 -102 16 -141c0 -63 -14 -129 -68 -167 c-36 -22 -77 -34 -124 -34c-135 0 -186 87 -186 153z"
         id="path1-7" /></symbol><style
       type="text/css"
       id="style1-6">
   <![CDATA[
    .fil0 {fill:#2B2A29;fill-rule:nonzero}
   ]]>
  </style></defs><g
     inkscape:label="Layer 1"
     inkscape:groupmode="layer"
     id="layer1"><path
       style="display:inline;fill:#00c85a;fill-opacity:1;stroke:none;stroke-width:33.2603;stroke-linecap:butt;stroke-linejoin:bevel;stroke-dasharray:none;stroke-dashoffset:0;stroke-opacity:1;paint-order:markers fill stroke"
       d="M 1042.4406,665.39823 C 1057.9661,541.15084 763.51778,234.37552 549.80218,538.84294 c 0,0 51.31267,102.19712 7.87343,254.46424 -43.43925,152.26711 -383.31012,123.00191 -346.21557,155.61434 37.09456,32.61243 261.5926,120.53708 337.50002,116.34638 75.90742,-4.1907 293.1879,-93.09893 332.96005,-131.44279 39.77215,-38.34386 144.99499,-144.17949 160.52049,-268.42688 z"
       id="path5-3-5"
       sodipodi:nodetypes="zczzzzz" /><path
       style="display:inline;fill:#00c85a;fill-opacity:1;stroke:none;stroke-width:33.2603;stroke-linecap:butt;stroke-linejoin:bevel;stroke-dasharray:none;stroke-dashoffset:0;stroke-opacity:1;paint-order:markers fill stroke"
       d="m 197.51033,910.27607 c 102.61346,71.75608 511.39378,-45.33193 341.98427,-376.50445 0,0 -114.33147,-2.35687 -228.68434,-111.88159 C 196.45733,312.3654 407.96839,32.102857 361.80675,49.672223 315.64516,67.2415 106.1482,218.09092 74.402406,287.16842 42.656612,356.24591 19.795248,589.89703 35.125444,642.97298 50.455601,696.04901 94.89696,838.52005 197.51033,910.27607 Z"
       id="path5-3-5-2"
       sodipodi:nodetypes="zczzzzz" /><path
       style="display:inline;fill:#00c85a;fill-opacity:1;stroke:none;stroke-width:33.122;stroke-linecap:butt;stroke-linejoin:bevel;stroke-dasharray:none;stroke-dashoffset:0;stroke-opacity:1;paint-order:markers fill stroke"
       d="M 396.40569,57.860563 C 283.67644,111.36698 183.91831,522.4576 554.42926,538.60949 c 0,0 58.33476,-97.7329 209.58648,-142.84016 151.25167,-45.10735 290.07986,275.51217 297.57636,226.95416 7.4966,-48.55792 -20.1318,-303.8636 -64.38661,-365.25504 C 952.9507,196.07702 761.64874,61.526493 708.08803,48.713752 654.52726,35.900939 509.13479,4.3541916 396.40569,57.860563 Z"
       id="path5-3-5-2-7"
       sodipodi:nodetypes="zczzzzz" /><ellipse
       style="display:inline;opacity:1;fill:none;fill-opacity:1;stroke:#ffffff;stroke-width:35.4078;stroke-dasharray:none;stroke-opacity:1;paint-order:markers fill stroke"
       id="path1"
       ry="522.22308"
       rx="520.9859"
       cy="540.62518"
       cx="539.60236" /><path
       style="display:inline;fill:none;fill-opacity:1;stroke:#ffffff;stroke-width:35;stroke-linecap:butt;stroke-linejoin:bevel;stroke-dasharray:none;stroke-dashoffset:0;stroke-opacity:1;paint-order:markers fill stroke"
       d="M 543.91455,540.82198 C 754.81121,250.52769 1074.0816,478.18202 1040.1107,686.62067"
       id="path5-3"
       sodipodi:nodetypes="cc" /><path
       style="display:inline;fill:none;fill-opacity:1;stroke:#ffffff;stroke-width:35;stroke-linecap:butt;stroke-linejoin:bevel;stroke-dasharray:none;stroke-dashoffset:0;stroke-opacity:1;paint-order:markers fill stroke"
       d="M 543.76919,540.49636 C 122.77515,475.14653 282.14506,-5.0169985 531.69255,19.13572"
       id="path5-3-9"
       sodipodi:nodetypes="cc" /><path
       style="display:inline;fill:none;fill-opacity:1;stroke:#ffffff;stroke-width:35;stroke-linecap:butt;stroke-linejoin:bevel;stroke-dasharray:none;stroke-dashoffset:0;stroke-opacity:1;paint-order:markers fill stroke"
       d="M 543.95625,540.73248 C 686.20032,810.46414 358.03116,1053.2614 132.9346,865.33512"
       id="path5-3-2"
       sodipodi:nodetypes="cc" /><rect
       style="fill:#00c85a;fill-opacity:1;stroke:#ffffff;stroke-width:31.3803;stroke-dasharray:none;stroke-opacity:1"
       id="rect1"
       width="411.32907"
       height="406.28491"
       x="334.33545"
       y="336.85754" /><g
       style="clip-rule:evenodd;fill-rule:evenodd;image-rendering:optimizeQuality;shape-rendering:geometricPrecision;text-rendering:geometricPrecision;fill:#ffffff;fill-opacity:1"
       id="g1"
       transform="matrix(9.9476314,0,0,10.433163,262.94006,327.94544)"><g
         id="Layer_x0020_1"
         inkscape:label="Layer 1"
         inkscape:groupmode="layer"
         style="fill:#ffffff;fill-opacity:1">
  <metadata
   id="CorelCorpID_0Corel-Layer" />
  <path
   class="fil0"
   d="m 29.898,26.5722 h -4.3921 c -0.0118,-0.635 -0.0177,-1.0172 -0.0177,-1.1583 0,-1.4229 0.2352,-2.5929 0.7056,-3.5102 0.4704,-0.9231 1.417,-1.952 2.8281,-3.1044 1.4111,-1.1465 2.2578,-1.8991 2.5282,-2.2578 0.4292,-0.5585 0.6409,-1.1818 0.6409,-1.8579 0,-0.9408 -0.3763,-1.7463 -1.1289,-2.4224 -0.7526,-0.6703 -1.7639,-1.0054 -3.0397,-1.0054 -1.2289,0 -2.2578,0.3527 -3.0868,1.0524 -0.8232,0.6997 -1.3935,1.7698 -1.7051,3.2044 l -4.4391,-0.5527 c 0.1234,-2.0578 0.9995,-3.8041 2.6223,-5.2387 1.6286,-1.4346 3.757,-2.152 6.4029,-2.152 2.7752,0 4.9859,0.7291 6.6322,2.1814 1.6404,1.4522 2.4635,3.1397 2.4635,5.0741 0,1.0642 -0.3057,2.0755 -0.9054,3.028 -0.6056,0.9525 -1.8933,2.2519 -3.8688,3.8923 -1.0231,0.8525 -1.6581,1.5346 -1.905,2.052 -0.2469,0.5174 -0.3587,1.4405 -0.3351,2.7752 z m -4.3921,6.5087 V 28.242 h 4.8389 v 4.8389 z"
   id="path1-2"
   style="fill:#ffffff;fill-opacity:1" />
 </g></g></g><style
     type="text/css"
     id="style1">g.page-margin{font-family:Times;} g.ending, g.fing, g.reh, g.tempo{font-weight:bold;} g.dir, g.dynam, g.mNum{font-style:italic;} g.label{font-weight:normal;}</style></svg>
