<?xml version="1.0" encoding="UTF-8" standalone="no"?>
<!-- Created with Inkscape (http://www.inkscape.org/) -->

<svg
   width="1080"
   height="1080"
   viewBox="0 0 1080 1080"
   version="1.1"
   id="svg1"
   xml:space="preserve"
   sodipodi:docname="bloxelcommunity.svg"
   inkscape:version="1.3.2 (091e20ef0f, 2023-11-25)"
   xmlns:inkscape="http://www.inkscape.org/namespaces/inkscape"
   xmlns:sodipodi="http://sodipodi.sourceforge.net/DTD/sodipodi-0.dtd"
   xmlns="http://www.w3.org/2000/svg"
   xmlns:svg="http://www.w3.org/2000/svg"><sodipodi:namedview
     id="namedview1"
     pagecolor="#210021"
     bordercolor="#999999"
     borderopacity="1"
     inkscape:showpageshadow="2"
     inkscape:pageopacity="0"
     inkscape:pagecheckerboard="0"
     inkscape:deskcolor="#d1d1d1"
     inkscape:document-units="px"
     showgrid="true"
     showguides="false"
     inkscape:zoom="0.57616108"
     inkscape:cx="328.90108"
     inkscape:cy="574.49212"
     inkscape:window-width="1920"
     inkscape:window-height="1040"
     inkscape:window-x="0"
     inkscape:window-y="0"
     inkscape:window-maximized="0"
     inkscape:current-layer="layer1"><inkscape:grid
       id="grid3"
       units="px"
       originx="0"
       originy="0"
       spacingx="1"
       spacingy="1"
       empcolor="#0099e5"
       empopacity="0.30196078"
       color="#0099e5"
       opacity="0.14902"
       empspacing="5"
       dotted="false"
       gridanglex="30"
       gridanglez="30"
       visible="true" /></sodipodi:namedview><defs
     id="defs1"><inkscape:path-effect
       effect="mirror_symmetry"
       start_point="6392.7581,794.2506"
       end_point="6392.7581,6015.6462"
       center_point="6392.7581,3404.9484"
       id="path-effect3"
       is_visible="true"
       lpeversion="1.2"
       lpesatellites=""
       mode="free"
       discard_orig_path="false"
       fuse_paths="false"
       oposite_fuse="false"
       split_items="false"
       split_open="false"
       link_styles="false" /><inkscape:path-effect
       effect="mirror_symmetry"
       start_point="6439.4324,4738.8043"
       end_point="6439.4324,8554.1213"
       center_point="6439.4324,6646.4628"
       id="path-effect2"
       is_visible="true"
       lpeversion="1.2"
       lpesatellites=""
       mode="free"
       discard_orig_path="true"
       fuse_paths="false"
       oposite_fuse="false"
       split_items="false"
       split_open="false"
       link_styles="false" /><symbol
       id="E050-mpvf5d"
       viewBox="0 0 1000 1000"
       overflow="inherit"><path
         transform="scale(1,-1)"
         d="M562 -21c0 89 -65 150 -155 150c7 -44 34 -203 55 -323c71 29 100 102 100 173zM420 -206l-58 329c-59 -14 -104 -63 -104 -124c0 -49 22 -75 61 -99c12 -8 22 -13 22 -22s-9 -13 -17 -13c-80 0 -135 96 -135 166c0 94 62 190 153 217c-7 41 -14 88 -23 142 c-15 -15 -31 -29 -48 -44c-88 -76 -174 -185 -174 -307c0 -151 122 -251 265 -251c19 0 38 2 58 6zM332 822c-8 -31 -11 -65 -11 -102c0 -42 5 -81 11 -121c69 68 146 146 146 250c0 69 -24 118 -39 118c-52 0 -98 -105 -107 -145zM122 -513c0 66 45 123 115 123 c75 0 116 -57 116 -111c0 -64 -47 -104 -94 -111c-3 -1 -5 -2 -5 -4c0 -1 2 -2 3 -3c2 0 23 -5 47 -5c101 0 154 55 154 159c0 53 -11 123 -30 219c-23 -4 -50 -7 -79 -7c-186 0 -349 147 -349 334c0 200 126 321 217 406c21 17 73 70 74 71c-17 112 -22 161 -22 215 c0 84 18 212 82 288c33 39 64 51 71 51c18 0 47 -35 71 -86c16 -36 44 -110 44 -201c0 -159 -73 -284 -179 -395c9 -56 19 -115 29 -175c146 0 253 -102 253 -253c0 -103 -73 -205 -171 -237c6 -39 12 -69 15 -89c10 -57 16 -102 16 -141c0 -63 -14 -129 -68 -167 c-36 -22 -77 -34 -124 -34c-135 0 -186 87 -186 153z"
         id="path1-7" /></symbol></defs><g
     inkscape:label="Layer 1"
     inkscape:groupmode="layer"
     id="layer1"><path
       style="display:inline;fill:#252525;fill-opacity:1;stroke:none;stroke-width:33.2603;stroke-linecap:butt;stroke-linejoin:bevel;stroke-dasharray:none;stroke-dashoffset:0;stroke-opacity:1;paint-order:markers fill stroke"
       d="M 1042.4406,665.39823 C 1057.9661,541.15084 763.51778,234.37552 549.80218,538.84294 c 0,0 51.31267,102.19712 7.87343,254.46424 -43.43925,152.26711 -383.31012,123.00191 -346.21557,155.61434 37.09456,32.61243 261.5926,120.53708 337.50002,116.34638 75.90742,-4.1907 293.1879,-93.09893 332.96005,-131.44279 39.77215,-38.34386 144.99499,-144.17949 160.52049,-268.42688 z"
       id="path5-3-5"
       sodipodi:nodetypes="zczzzzz" /><path
       style="display:inline;fill:#252525;fill-opacity:1;stroke:none;stroke-width:33.2603;stroke-linecap:butt;stroke-linejoin:bevel;stroke-dasharray:none;stroke-dashoffset:0;stroke-opacity:1;paint-order:markers fill stroke"
       d="m 197.51033,910.27607 c 102.61346,71.75608 511.39378,-45.33193 341.98427,-376.50445 0,0 -114.33147,-2.35687 -228.68434,-111.88159 C 196.45733,312.3654 407.96839,32.102857 361.80675,49.672223 315.64516,67.2415 106.1482,218.09092 74.402406,287.16842 42.656612,356.24591 19.795248,589.89703 35.125444,642.97298 50.455601,696.04901 94.89696,838.52005 197.51033,910.27607 Z"
       id="path5-3-5-2"
       sodipodi:nodetypes="zczzzzz" /><path
       style="display:inline;fill:#252525;fill-opacity:1;stroke:none;stroke-width:32.7931;stroke-linecap:butt;stroke-linejoin:bevel;stroke-dasharray:none;stroke-dashoffset:0;stroke-opacity:1;paint-order:markers fill stroke"
       d="M 395.18502,62.413835 C 283.79336,115.49274 185.21891,523.29884 551.33357,539.32168 c 0,0 57.64259,-96.95204 207.09964,-141.6989 149.45699,-44.74696 286.63789,273.31088 294.04549,225.14084 7.4076,-48.16995 -19.893,-301.43579 -63.62266,-362.33673 C 945.12636,199.52597 756.09429,66.050476 703.1691,53.340106 650.24386,40.629664 506.57654,9.3349691 395.18502,62.413835 Z"
       id="path5-3-5-2-7"
       sodipodi:nodetypes="zczzzzz" /><ellipse
       style="display:inline;opacity:1;fill:none;fill-opacity:1;stroke:#ffffff;stroke-width:35.4078;stroke-dasharray:none;stroke-opacity:1;paint-order:markers fill stroke"
       id="path1"
       ry="522.22308"
       rx="520.9859"
       cy="540.62518"
       cx="539.60236" /><path
       style="display:inline;fill:none;fill-opacity:1;stroke:#ffffff;stroke-width:35;stroke-linecap:butt;stroke-linejoin:bevel;stroke-dasharray:none;stroke-dashoffset:0;stroke-opacity:1;paint-order:markers fill stroke"
       d="M 543.91455,540.82198 C 754.81121,250.52769 1074.0816,478.18202 1040.1107,686.62067"
       id="path5-3"
       sodipodi:nodetypes="cc" /><path
       style="display:inline;fill:none;fill-opacity:1;stroke:#ffffff;stroke-width:35;stroke-linecap:butt;stroke-linejoin:bevel;stroke-dasharray:none;stroke-dashoffset:0;stroke-opacity:1;paint-order:markers fill stroke"
       d="M 543.76919,540.49636 C 122.77515,475.14653 282.14506,-5.0169985 531.69255,19.13572"
       id="path5-3-9"
       sodipodi:nodetypes="cc" /><path
       style="display:inline;fill:none;fill-opacity:1;stroke:#ffffff;stroke-width:35;stroke-linecap:butt;stroke-linejoin:bevel;stroke-dasharray:none;stroke-dashoffset:0;stroke-opacity:1;paint-order:markers fill stroke"
       d="M 543.95625,540.73248 C 686.20032,810.46414 358.03116,1053.2614 132.9346,865.33512"
       id="path5-3-2"
       sodipodi:nodetypes="cc" /><g
       transform="matrix(0.05017962,0,0,-0.04827448,219.21383,722.83696)"
       fill="#000000"
       stroke="none"
       id="g6"
       style="fill:#252525;fill-opacity:1;stroke:#ffffff;stroke-width:713.09519392;stroke-linejoin:round;stroke-dasharray:none;stroke-opacity:1"><path
         d="m 11014.092,5104.5651 c 159.197,-157.9623 328.346,-485.2616 440.407,-698.4464 83.6,-159.2465 183.209,-382.7053 242.797,-545.8046 266.81,-734.5887 448.241,-1868.578 477.591,-2983.30366 l 6.225,-240.15402 c 0,0 -608.175,-239.15846 -1389.705,-353.80591 -781.53,-114.64745 -1824.9508,-44.78486 -1824.9508,-44.78486 L 8637.4986,814.98881 C 8266.7923,2564.1081 7418.4313,3315.9673 7370.6675,3453.9172 l 931.3129,1596.0321 c 1311.2713,1444.1606 2240.1986,625.5782 2712.1116,54.6158 z m -9242.6678,0 c -159.197,-157.9623 -328.346,-485.2616 -440.407,-698.4464 -83.6,-159.2465 -183.209,-382.7053 -242.797,-545.8046 -266.81,-734.5887 -448.241,-1868.578 -477.591,-2983.30366 l -6.225,-240.15402 c 0,0 608.175,-239.15846 1389.705,-353.80591 781.53,-114.64745 1824.9508,-44.78486 1824.9508,-44.78486 l 328.9576,576.72316 C 4518.7239,2564.1081 5367.0849,3315.9673 5414.8487,3453.9172 l -931.3129,1596.0321 c -1311.2713,1444.1606 -2240.1986,625.5782 -2712.1116,54.6158 z"
         id="path5-7"
         style="fill:#252525;fill-opacity:1;stroke:#ffffff;stroke-width:713.09519392;stroke-linejoin:round;stroke-dasharray:none;stroke-opacity:1"
         sodipodi:nodetypes="ccccczccccc"
         inkscape:path-effect="#path-effect3"
         inkscape:original-d="m 11014.092,5104.5651 c 159.197,-157.9623 328.346,-485.2616 440.407,-698.4464 83.6,-159.2465 183.209,-382.7053 242.797,-545.8046 266.81,-734.5887 448.241,-1868.578 477.591,-2983.30366 l 6.225,-240.15402 c 0,0 -608.175,-239.15846 -1389.705,-353.80591 -781.53,-114.64745 -1824.9508,-44.78486 -1824.9508,-44.78486 L 8637.4986,814.98881 C 8266.7923,2564.1081 7418.4313,3315.9673 7370.6675,3453.9172 l 931.3129,1596.0321 c 1311.2713,1444.1606 2240.1986,625.5782 2712.1116,54.6158 z" /><path
         d="m 9688.4858,8448.5906 c 16,-2 65.9999,-9 109.9998,-15 590.0004,-78 1135.0024,-462 1418.0034,-999 317,-601 293,-1314 -63.001,-1895 -252,-412 -684.001,-729 -1155.0029,-849 -255.9994,-65 -594.9996,-73 -841.9996,-22 -299,63 -585,195 -810,374 -43,35 -52,48 -58,84 -70,461 -256,851 -575,1207 -102,114 -104,122 -90,334 46,681 444,1280 1055,1585 264,132 505,190 809.9998,197 92.9998,2 183.0006,1 200.0005,-1 z"
         id="path1-1-8"
         style="fill:#252525;fill-opacity:1;stroke:#ffffff;stroke-width:713.09519392;stroke-linejoin:round;stroke-dasharray:none;stroke-opacity:1" /><path
         d="m 3172.7199,8431.6123 c -15.9999,-2 -65.9998,-9 -109.9997,-15 -589.9994,-78 -1135.0014,-462 -1418.0024,-999 -317,-601 -293,-1314 63.001,-1895 252,-412 684.001,-729 1155.003,-849 255.9982,-65 594.998,-73 841.998,-22 298.999,63 584.998,195 809.998,374 43,35 52,48 58,84 69.999,461 255.999,851 574.998,1207 102,114 104,122 90,334 -46,681 -443.999,1280 -1054.997,1585 -264,132 -504.999,190 -809.998,197 -93.0002,2 -183.0009,1 -200.0009,-1 z"
         id="path1-1-8-6"
         style="opacity:1;fill:#252525;fill-opacity:1;stroke:#ffffff;stroke-width:713.09519392;stroke-linejoin:round;stroke-dasharray:none;stroke-opacity:1"
         inkscape:path-effect="#path-effect2"
         inkscape:original-d="m 9706.1449,8431.6123 c 15.9999,-2 65.9998,-9 109.9997,-15 589.9994,-78 1135.0014,-462 1418.0024,-999 317,-601 293,-1314 -63.001,-1895 -252,-412 -684.001,-729 -1155.003,-849 -255.9982,-65 -594.998,-73 -841.998,-22 -298.999,63 -584.998,195 -809.998,374 -43,35 -52,48 -58,84 -69.999,461 -255.999,851 -574.998,1207 -102,114 -104,122 -90,334 46,681 443.999,1280 1054.997,1585 264,132 504.999,190 809.998,197 93.0002,2 183.0009,1 200.0009,-1 z" /><path
         d="m 6997.2776,3486.8472 c -388,-155.4509 -525.7559,-212.7919 -924.7559,-102.4337 C 5519.3549,3535.5305 5028.6642,3281.8501 4994,3263.5686 c -37,-16.6131 -202,-160.1975 -302,-262.2493 -96,-98.4917 -205,-236.1429 -314,-398.7137 -69,-102.0517 -199,-348.8745 -262,-497.2055 C 3847.1279,1372.1079 3658.3474,967.14631 3634.4001,184.95423 L 3610,-612.02381 c 0,0 1878.6279,-263.89064 2809.1279,-263.89064 930.5,0 2773.8721,263.89064 2773.8721,263.89064 l -30.4957,714.88655 C 9132.5043,916.90327 8989,1285.4263 8748,1939.2694 c -202,548.2314 -488,976.6113 -849,1269.7133 -48,39.1594 -91,71.1989 -96,70.0123 -10.8761,0 -413.6967,365.198 -805.7224,207.8522 z"
         id="path6"
         style="fill:#252525;fill-opacity:1;stroke:#ffffff;stroke-width:713.09519392;stroke-linejoin:round;stroke-dasharray:none;stroke-opacity:1;paint-order:normal"
         sodipodi:nodetypes="ccccccsczcccccc" /><path
         d="M 6140,6944 C 5378,6840 4743,6274 4550,5524 4260,4400 5041,3278 6202,3151 c 1024,-112 1966,636 2093,1662 47,383 -16,749 -192,1096 -286,568 -828,954 -1456,1036 -144,18 -365,18 -507,-1 z"
         id="path3"
         style="fill:#252525;fill-opacity:1;stroke:#ffffff;stroke-width:713.09519392;stroke-linejoin:round;stroke-dasharray:none;stroke-opacity:1" /></g></g><style
     type="text/css"
     id="style1">g.page-margin{font-family:Times;} g.ending, g.fing, g.reh, g.tempo{font-weight:bold;} g.dir, g.dynam, g.mNum{font-style:italic;} g.label{font-weight:normal;}</style></svg>
