<?xml version="1.0" encoding="UTF-8" standalone="no"?>
<!-- Created with Inkscape (http://www.inkscape.org/) -->

<svg
   width="1080"
   height="1080"
   viewBox="0 0 1080 1080"
   version="1.1"
   id="svg1"
   xml:space="preserve"
   sodipodi:docname="bloxelbeats.svg"
   inkscape:version="1.3.2 (091e20ef0f, 2023-11-25)"
   xmlns:inkscape="http://www.inkscape.org/namespaces/inkscape"
   xmlns:sodipodi="http://sodipodi.sourceforge.net/DTD/sodipodi-0.dtd"
   xmlns:xlink="http://www.w3.org/1999/xlink"
   xmlns="http://www.w3.org/2000/svg"
   xmlns:svg="http://www.w3.org/2000/svg"><sodipodi:namedview
     id="namedview1"
     pagecolor="#210021"
     bordercolor="#999999"
     borderopacity="1"
     inkscape:showpageshadow="2"
     inkscape:pageopacity="0"
     inkscape:pagecheckerboard="0"
     inkscape:deskcolor="#d1d1d1"
     inkscape:document-units="px"
     showgrid="true"
     showguides="false"
     inkscape:zoom="0.81481481"
     inkscape:cx="427.70455"
     inkscape:cy="531.40909"
     inkscape:window-width="1920"
     inkscape:window-height="1040"
     inkscape:window-x="0"
     inkscape:window-y="0"
     inkscape:window-maximized="0"
     inkscape:current-layer="layer1"><inkscape:grid
       id="grid3"
       units="px"
       originx="0"
       originy="0"
       spacingx="1"
       spacingy="1"
       empcolor="#0099e5"
       empopacity="0.30196078"
       color="#0099e5"
       opacity="0.14902"
       empspacing="5"
       dotted="false"
       gridanglex="30"
       gridanglez="30"
       visible="true" /></sodipodi:namedview><defs
     id="defs1"><symbol
       id="E050-mpvf5d"
       viewBox="0 0 1000 1000"
       overflow="inherit"><path
         transform="scale(1,-1)"
         d="M562 -21c0 89 -65 150 -155 150c7 -44 34 -203 55 -323c71 29 100 102 100 173zM420 -206l-58 329c-59 -14 -104 -63 -104 -124c0 -49 22 -75 61 -99c12 -8 22 -13 22 -22s-9 -13 -17 -13c-80 0 -135 96 -135 166c0 94 62 190 153 217c-7 41 -14 88 -23 142 c-15 -15 -31 -29 -48 -44c-88 -76 -174 -185 -174 -307c0 -151 122 -251 265 -251c19 0 38 2 58 6zM332 822c-8 -31 -11 -65 -11 -102c0 -42 5 -81 11 -121c69 68 146 146 146 250c0 69 -24 118 -39 118c-52 0 -98 -105 -107 -145zM122 -513c0 66 45 123 115 123 c75 0 116 -57 116 -111c0 -64 -47 -104 -94 -111c-3 -1 -5 -2 -5 -4c0 -1 2 -2 3 -3c2 0 23 -5 47 -5c101 0 154 55 154 159c0 53 -11 123 -30 219c-23 -4 -50 -7 -79 -7c-186 0 -349 147 -349 334c0 200 126 321 217 406c21 17 73 70 74 71c-17 112 -22 161 -22 215 c0 84 18 212 82 288c33 39 64 51 71 51c18 0 47 -35 71 -86c16 -36 44 -110 44 -201c0 -159 -73 -284 -179 -395c9 -56 19 -115 29 -175c146 0 253 -102 253 -253c0 -103 -73 -205 -171 -237c6 -39 12 -69 15 -89c10 -57 16 -102 16 -141c0 -63 -14 -129 -68 -167 c-36 -22 -77 -34 -124 -34c-135 0 -186 87 -186 153z"
         id="path1-7" /></symbol></defs><g
     inkscape:label="Layer 1"
     inkscape:groupmode="layer"
     id="layer1"><path
       style="display:inline;fill:#00c85a;fill-opacity:1;stroke:none;stroke-width:33.2603;stroke-linecap:butt;stroke-linejoin:bevel;stroke-dasharray:none;stroke-dashoffset:0;stroke-opacity:1;paint-order:markers fill stroke"
       d="M 1042.4406,665.39823 C 1057.9661,541.15084 763.51778,234.37552 549.80218,538.84294 c 0,0 51.31267,102.19712 7.87343,254.46424 -43.43925,152.26711 -383.31012,123.00191 -346.21557,155.61434 37.09456,32.61243 261.5926,120.53708 337.50002,116.34638 75.90742,-4.1907 293.1879,-93.09893 332.96005,-131.44279 39.77215,-38.34386 144.99499,-144.17949 160.52049,-268.42688 z"
       id="path5-3-5"
       sodipodi:nodetypes="zczzzzz" /><path
       style="display:inline;fill:#00c85a;fill-opacity:1;stroke:none;stroke-width:33.2603;stroke-linecap:butt;stroke-linejoin:bevel;stroke-dasharray:none;stroke-dashoffset:0;stroke-opacity:1;paint-order:markers fill stroke"
       d="m 197.51033,910.27607 c 102.61346,71.75608 511.39378,-45.33193 341.98427,-376.50445 0,0 -114.33147,-2.35687 -228.68434,-111.88159 C 196.45733,312.3654 407.96839,32.102857 361.80675,49.672223 315.64516,67.2415 106.1482,218.09092 74.402406,287.16842 42.656612,356.24591 19.795248,589.89703 35.125444,642.97298 50.455601,696.04901 94.89696,838.52005 197.51033,910.27607 Z"
       id="path5-3-5-2"
       sodipodi:nodetypes="zczzzzz" /><path
       style="display:inline;fill:#00c85a;fill-opacity:1;stroke:none;stroke-width:33.122;stroke-linecap:butt;stroke-linejoin:bevel;stroke-dasharray:none;stroke-dashoffset:0;stroke-opacity:1;paint-order:markers fill stroke"
       d="M 396.40569,57.860563 C 283.67644,111.36698 183.91831,522.4576 554.42926,538.60949 c 0,0 58.33476,-97.7329 209.58648,-142.84016 151.25167,-45.10735 290.07986,275.51217 297.57636,226.95416 7.4966,-48.55792 -20.1318,-303.8636 -64.38661,-365.25504 C 952.9507,196.07702 761.64874,61.526493 708.08803,48.713752 654.52726,35.900939 509.13479,4.3541916 396.40569,57.860563 Z"
       id="path5-3-5-2-7"
       sodipodi:nodetypes="zczzzzz" /><ellipse
       style="display:inline;opacity:1;fill:none;fill-opacity:1;stroke:#ffffff;stroke-width:35.4078;stroke-dasharray:none;stroke-opacity:1;paint-order:markers fill stroke"
       id="path1"
       ry="522.22308"
       rx="520.9859"
       cy="540.62518"
       cx="539.60236" /><path
       style="display:inline;fill:none;fill-opacity:1;stroke:#ffffff;stroke-width:35;stroke-linecap:butt;stroke-linejoin:bevel;stroke-dasharray:none;stroke-dashoffset:0;stroke-opacity:1;paint-order:markers fill stroke"
       d="M 543.91455,540.82198 C 754.81121,250.52769 1074.0816,478.18202 1040.1107,686.62067"
       id="path5-3"
       sodipodi:nodetypes="cc" /><path
       style="display:inline;fill:none;fill-opacity:1;stroke:#ffffff;stroke-width:35;stroke-linecap:butt;stroke-linejoin:bevel;stroke-dasharray:none;stroke-dashoffset:0;stroke-opacity:1;paint-order:markers fill stroke"
       d="M 543.76919,540.49636 C 122.77515,475.14653 282.14506,-5.0169985 531.69255,19.13572"
       id="path5-3-9"
       sodipodi:nodetypes="cc" /><path
       style="display:inline;fill:none;fill-opacity:1;stroke:#ffffff;stroke-width:35;stroke-linecap:butt;stroke-linejoin:bevel;stroke-dasharray:none;stroke-dashoffset:0;stroke-opacity:1;paint-order:markers fill stroke"
       d="M 543.95625,540.73248 C 686.20032,810.46414 358.03116,1053.2614 132.9346,865.33512"
       id="path5-3-2"
       sodipodi:nodetypes="cc" /><g
       id="g1"
       transform="matrix(56.443742,-14.325738,11.700558,50.785269,669.75921,637.44714)"><path
         d="m 0,0 c 0,-198 209,-335 209,-533 0,-71 -16,-141 -42,-207 -5,-8 -12,-12 -19,-12 -13,0 -26,11 -23,27 26,61 42,126 42,192 0,104 -95,208 -167,283 H -16 V 0 Z"
         id="path68"
         inkscape:connector-curvature="0"
         style="fill:#ffffff;fill-opacity:1"
         transform="matrix(0.004,0,0,-0.004,1.3162,0.03999969)" /><rect
         transform="translate(1.2512,1.9999997)"
         x="-0.064999998"
         y="-2"
         width="0.13"
         height="3.3122001"
         ry="0.039999999"
         id="rect70"
         style="fill:#ffffff;fill-opacity:1" /><a
         id="a72"
         transform="matrix(0.73699213,-0.04851998,-0.03565596,0.89893926,-69.193387,-0.72608874)"><path
           d="m 220,138 c 56,0 109,-29 109,-91 0,-72 -56,-121 -103,-149 -36,-21 -76,-36 -117,-36 -56,0 -109,29 -109,91 0,72 56,121 103,149 36,21 76,36 117,36 z"
           id="path74"
           inkscape:connector-curvature="0"
           style="fill:#ffffff;fill-opacity:1"
           transform="matrix(0.004,0,0,-0.004,94.8335,9.8453)" /></a></g><g
       transform="matrix(-2.3869505,-1.1919746,0.85012781,-3.6337632,1199.5143,2821.0456)"
       id="g15748"
       style="fill:#ffffff;fill-opacity:1"><g
         transform="translate(217.20943,96.063964)"
         id="g15720"
         style="fill:#ffffff;fill-opacity:1"><path
           d="m 304.41313,299.02723 c -5.25353,2.54229 -8.32191,6.682 -6.95591,9.53238 1.45708,3.04041 7.42918,3.49924 13.33059,1.02419 5.90138,-2.47508 9.50837,-6.95142 8.05129,-9.99183 -1.45709,-3.0404 -7.42918,-3.49923 -13.33057,-1.02417 -0.36885,0.15469 -0.74515,0.28993 -1.0954,0.45943 z"
           id="path15722"
           style="fill:#ffffff;fill-opacity:1;fill-rule:evenodd;stroke:none;stroke-width:1.32916" /><path
           d="m 299.4045,305.82483 v 33.74719"
           id="path15724"
           style="fill:#ffffff;stroke:#fefefe;stroke-width:4.42394;stroke-linecap:butt;stroke-linejoin:miter;stroke-miterlimit:4;stroke-dasharray:none;stroke-opacity:1;fill-opacity:1" /></g><g
         transform="translate(243.78965,95.96253)"
         id="g15738"
         style="fill:#ffffff;fill-opacity:1"><path
           d="m 303.14339,299.54362 c -4.98633,2.47587 -7.83677,6.6252 -6.45835,9.55692 1.47031,3.12717 7.21676,3.72263 12.82687,1.32915 5.61012,-2.3935 8.96998,-6.87402 7.49966,-10.0012 -1.47032,-3.12717 -7.21674,-3.72263 -12.82686,-1.32914 -0.35063,0.14959 -0.70889,0.27922 -1.04132,0.44427 z"
           id="path15740"
           style="fill:#ffffff;fill-opacity:1;fill-rule:evenodd;stroke:none;stroke-width:1.31407" /><path
           d="m 299.3628,305.92891 v 33.64311"
           id="path15742"
           style="fill:#ffffff;stroke:#ffffff;stroke-width:5.83764;stroke-linecap:butt;stroke-linejoin:miter;stroke-miterlimit:4;stroke-dasharray:none;stroke-opacity:1;fill-opacity:1" /></g><rect
         width="28.77754"
         height="4.5129519"
         x="491.95685"
         y="387.86911"
         id="rect15744"
         style="fill:#ffffff;fill-opacity:1;fill-rule:evenodd;stroke:none;stroke-width:0.898141"
         ry="0"
         transform="matrix(0.99742091,0.07177418,0.06531027,0.99786501,0,0)" /><rect
         width="31.985489"
         height="4.06423"
         x="489.65479"
         y="397.99088"
         id="rect15746"
         style="fill:#ffffff;fill-opacity:1;fill-rule:evenodd;stroke:none;stroke-width:0.898959"
         transform="matrix(0.99747018,0.07108613,0.06478452,0.99789928,0,0)" /></g><g
       style="overflow:visible;fill:#ffffff;fill-opacity:1"
       id="g2"
       transform="matrix(0.39383767,0,0,0.35902038,-482.26357,-158.64866)"><g
         class="page-margin"
         id="g6"
         style="color:#000000;fill:#ffffff;fill-opacity:1"
         transform="matrix(0.48130345,0,0,0.59852359,2411.4017,625.60309)"><g
           id="mn99xbe"
           class="mdiv pageMilestone"
           style="fill:#ffffff;fill-opacity:1" /><g
           id="s8dzeec"
           class="score pageMilestone"
           style="fill:#ffffff;fill-opacity:1" /><g
           id="s3xs6u7"
           class="system"
           style="fill:#ffffff;fill-opacity:1"><g
             id="sj972sj"
             class="section systemMilestone"
             style="fill:#ffffff;fill-opacity:1" /><g
             id="s1s1d21"
             class="staff"
             style="fill:#ffffff;fill-opacity:1"><g
               id="c8nw51m"
               class="clef"
               style="fill:#ffffff;fill-opacity:1"><use
                 xlink:href="#E050-mpvf5d"
                 x="90"
                 y="1080"
                 height="720"
                 width="720"
                 id="use6"
                 style="fill:#ffffff;fill-opacity:1" /></g><g
               id="lsabfq0"
               class="layer"
               style="fill:#ffffff;fill-opacity:1" /></g><g
             id="ss81e85"
             class="systemMilestoneEnd sj972sj"
             style="fill:#ffffff;fill-opacity:1" /></g><g
           id="p4l6gxb"
           class="pageMilestoneEnd s8dzeec"
           style="fill:#ffffff;fill-opacity:1" /><g
           id="pbxw6jo"
           class="pageMilestoneEnd mn99xbe"
           style="fill:#ffffff;fill-opacity:1" /><g
           id="p2xpaq7"
           class="pgHead autogenerated"
           style="fill:#ffffff;fill-opacity:1" /></g></g></g><style
     type="text/css"
     id="style1">g.page-margin{font-family:Times;} g.ending, g.fing, g.reh, g.tempo{font-weight:bold;} g.dir, g.dynam, g.mNum{font-style:italic;} g.label{font-weight:normal;}</style></svg>
