<svg version="1.1" xmlns="http://www.w3.org/2000/svg" xmlns:xlink="http://www.w3.org/1999/xlink" width="278.83333" height="278.83333" viewBox="0,0,278.83333,278.83333"><g transform="translate(-100.58334,-40.58334)"><g data-paper-data="{&quot;isPaintingLayer&quot;:true}" fill-rule="nonzero" stroke-width="7.5" stroke-linecap="butt" stroke-linejoin="miter" stroke-miterlimit="10" stroke-dasharray="" stroke-dashoffset="0" style="mix-blend-mode: normal"><path d="M240,315.66666c-74.93464,0 -135.66666,-60.73204 -135.66666,-135.66666c0,-74.93464 60.73203,-135.66667 135.66667,-135.66667c74.93462,0 135.66666,60.73203 135.66666,135.66667c0,74.93463 -60.73204,135.66666 -135.66666,135.66666zM375.66666,180" fill="#000000" stroke="#000000"/><path d="M240,315.66666c-74.93464,0 -135.66666,-60.73203 -135.66666,-135.66666c0,-74.93464 60.73203,-135.66667 135.66667,-135.66667c74.93464,0 135.66666,60.73203 135.66666,135.66667c0,74.93464 -60.73203,135.66666 -135.66666,135.66666zM375.66666,180" fill="#ff0000" stroke="#fffffe"/><path d="M240,180c-37.46733,0 -67.83334,-30.36602 -67.83334,-67.83334c0,-37.46732 30.366,-67.83333 67.83334,-67.83333" fill="none" stroke="#ffffff"/><path d="M122.50922,247.83333c18.73367,32.44766 60.21441,43.56238 92.66206,24.82872c32.44765,-18.73366 43.56239,-60.21439 24.82872,-92.66205c18.73367,-32.44766 60.21441,-43.56239 92.66207,-24.82871c32.44765,18.73365 43.56238,60.21438 24.82871,92.66204" fill="none" stroke="#ffffff"/><path d="M253.56234,112.16666c0,7.48877 -6.07358,13.56234 -13.56236,13.56234c-7.48876,0 -13.56233,-6.07357 -13.56233,-13.56234c0,-7.48877 6.07357,-13.56234 13.56233,-13.56234c7.48878,0 13.56236,6.07356 13.56236,13.56234" fill="#ffffff" stroke="none"/><path d="M194.81695,213.91666c0,7.48877 -6.07357,13.56234 -13.56235,13.56234c-7.48876,0 -13.56233,-6.07357 -13.56233,-13.56234c0,-7.48877 6.07357,-13.56234 13.56233,-13.56234c7.48878,0 13.56235,6.07357 13.56235,13.56234" fill="#ffffff" stroke="none"/><path d="M312.30773,213.91666c0,7.48877 -6.07357,13.56234 -13.56236,13.56234c-7.48876,0 -13.56232,-6.07357 -13.56232,-13.56234c0,-7.48877 6.07356,-13.56234 13.56232,-13.56234c7.48879,0 13.56236,6.07357 13.56236,13.56234" fill="#ffffff" stroke="none"/></g></g></svg>