<?xml version="1.0" encoding="UTF-8" standalone="no"?>
<!-- Created with Inkscape (http://www.inkscape.org/) -->

<svg
   width="1080"
   height="1080"
   viewBox="0 0 1080 1080"
   version="1.1"
   id="svg1"
   xml:space="preserve"
   sodipodi:docname="bloxelesteanime.svg"
   inkscape:version="1.3.2 (091e20ef0f, 2023-11-25)"
   xmlns:inkscape="http://www.inkscape.org/namespaces/inkscape"
   xmlns:sodipodi="http://sodipodi.sourceforge.net/DTD/sodipodi-0.dtd"
   xmlns="http://www.w3.org/2000/svg"
   xmlns:svg="http://www.w3.org/2000/svg"><sodipodi:namedview
     id="namedview1"
     pagecolor="#210021"
     bordercolor="#999999"
     borderopacity="1"
     inkscape:showpageshadow="2"
     inkscape:pageopacity="0"
     inkscape:pagecheckerboard="0"
     inkscape:deskcolor="#d1d1d1"
     inkscape:document-units="px"
     showgrid="true"
     showguides="false"
     inkscape:zoom="0.57616108"
     inkscape:cx="483.37177"
     inkscape:cy="553.66461"
     inkscape:window-width="1920"
     inkscape:window-height="1040"
     inkscape:window-x="0"
     inkscape:window-y="0"
     inkscape:window-maximized="0"
     inkscape:current-layer="layer1"><inkscape:grid
       id="grid3"
       units="px"
       originx="0"
       originy="0"
       spacingx="1"
       spacingy="1"
       empcolor="#0099e5"
       empopacity="0.30196078"
       color="#0099e5"
       opacity="0.14901961"
       empspacing="5"
       dotted="false"
       gridanglex="30"
       gridanglez="30"
       visible="true" /></sodipodi:namedview><defs
     id="defs1" /><g
     inkscape:label="Layer 1"
     inkscape:groupmode="layer"
     id="layer1"><path
       style="display:inline;fill:#d9bfff;fill-opacity:1;stroke:none;stroke-width:33.2603;stroke-linecap:butt;stroke-linejoin:bevel;stroke-dasharray:none;stroke-dashoffset:0;stroke-opacity:1;paint-order:markers fill stroke"
       d="M 1042.4406,665.39823 C 1057.9661,541.15084 763.51778,234.37552 549.80218,538.84294 c 0,0 51.31267,102.19712 7.87343,254.46424 -43.43925,152.26711 -383.31012,123.00191 -346.21557,155.61434 37.09456,32.61243 261.5926,120.53708 337.50002,116.34638 75.90742,-4.1907 293.1879,-93.09893 332.96005,-131.44279 39.77215,-38.34386 144.99499,-144.17949 160.52049,-268.42688 z"
       id="path5-3-5"
       sodipodi:nodetypes="zczzzzz" /><path
       style="display:inline;fill:#d9bfff;fill-opacity:1;stroke:none;stroke-width:33.2603;stroke-linecap:butt;stroke-linejoin:bevel;stroke-dasharray:none;stroke-dashoffset:0;stroke-opacity:1;paint-order:markers fill stroke"
       d="m 197.51033,910.27607 c 102.61346,71.75608 511.39378,-45.33193 341.98427,-376.50445 0,0 -114.33147,-2.35687 -228.68434,-111.88159 C 196.45733,312.3654 407.96839,32.102857 361.80675,49.672223 315.64516,67.2415 106.1482,218.09092 74.402406,287.16842 42.656612,356.24591 19.795248,589.89703 35.125444,642.97298 50.455601,696.04901 94.89696,838.52005 197.51033,910.27607 Z"
       id="path5-3-5-2"
       sodipodi:nodetypes="zczzzzz" /><path
       style="display:inline;fill:#d9bfff;fill-opacity:1;stroke:none;stroke-width:32.9493;stroke-linecap:butt;stroke-linejoin:bevel;stroke-dasharray:none;stroke-dashoffset:0;stroke-opacity:1;paint-order:markers fill stroke"
       d="M 394.41891,52.683504 C 283.86675,106.67599 186.0352,521.50112 549.39064,537.79974 c 0,0 57.20817,-98.62075 205.53883,-144.13778 148.33061,-45.51712 284.47773,278.01503 291.82943,229.0159 7.3518,-48.99904 -19.7431,-306.62401 -63.14317,-368.57316 C 940.21561,192.15557 752.60818,56.382738 700.08186,43.453601 647.5555,30.524391 504.97092,-1.308939 394.41891,52.683504 Z"
       id="path5-3-5-2-7"
       sodipodi:nodetypes="zczzzzz" /><ellipse
       style="display:inline;opacity:1;fill:none;fill-opacity:1;stroke:#ffffff;stroke-width:35.4078;stroke-dasharray:none;stroke-opacity:1;paint-order:markers fill stroke"
       id="path1"
       ry="522.22308"
       rx="520.9859"
       cy="540.62518"
       cx="539.60236" /><path
       style="display:inline;fill:none;fill-opacity:1;stroke:#ffffff;stroke-width:35;stroke-linecap:butt;stroke-linejoin:bevel;stroke-dasharray:none;stroke-dashoffset:0;stroke-opacity:1;paint-order:markers fill stroke"
       d="M 543.91455,540.82198 C 754.81121,250.52769 1074.0816,478.18202 1040.1107,686.62067"
       id="path5-3"
       sodipodi:nodetypes="cc" /><path
       style="display:inline;fill:none;fill-opacity:1;stroke:#ffffff;stroke-width:35;stroke-linecap:butt;stroke-linejoin:bevel;stroke-dasharray:none;stroke-dashoffset:0;stroke-opacity:1;paint-order:markers fill stroke"
       d="M 543.76919,540.49636 C 122.77515,475.14653 282.14506,-5.0169985 531.69255,19.13572"
       id="path5-3-9"
       sodipodi:nodetypes="cc" /><path
       style="display:inline;fill:none;fill-opacity:1;stroke:#ffffff;stroke-width:35;stroke-linecap:butt;stroke-linejoin:bevel;stroke-dasharray:none;stroke-dashoffset:0;stroke-opacity:1;paint-order:markers fill stroke"
       d="M 543.95625,540.73248 C 686.20032,810.46414 358.03116,1053.2614 132.9346,865.33512"
       id="path5-3-2"
       sodipodi:nodetypes="cc" /><path
       sodipodi:type="star"
       style="opacity:1;fill:#ffffff;fill-opacity:1;stroke:#ffffff;stroke-width:2.01503;stroke-linecap:butt;stroke-linejoin:miter;stroke-dasharray:none;stroke-dashoffset:0;stroke-opacity:1;paint-order:markers fill stroke"
       id="path5"
       inkscape:flatsided="false"
       sodipodi:sides="5"
       sodipodi:cx="531.89807"
       sodipodi:cy="255.39737"
       sodipodi:r1="146.12825"
       sodipodi:r2="50.373566"
       sodipodi:arg1="0.93926231"
       sodipodi:arg2="1.569947"
       inkscape:rounded="0"
       inkscape:randomized="0"
       d="m 618.16979,373.34081 -86.22894,-67.56989 -85.55423,68.12226 37.61658,-102.88884 -91.22583,-60.31597 109.47726,3.98109 29.17357,-105.39959 30.04409,105.3493 109.25609,-4.82456 -90.909,61.12835 z"
       inkscape:transform-center-x="0.23129818"
       inkscape:transform-center-y="-4.5651083"
       transform="matrix(0.51295675,0,0,0.48012568,272.66955,148.34448)" /><path
       sodipodi:type="star"
       style="fill:#ffffff;fill-opacity:1;stroke:#ffffff;stroke-width:2.01503;stroke-linecap:butt;stroke-linejoin:miter;stroke-dasharray:none;stroke-dashoffset:0;stroke-opacity:1;paint-order:markers fill stroke"
       id="path5-1"
       inkscape:flatsided="false"
       sodipodi:sides="5"
       sodipodi:cx="531.89807"
       sodipodi:cy="255.39737"
       sodipodi:r1="146.12825"
       sodipodi:r2="50.373566"
       sodipodi:arg1="0.93926231"
       sodipodi:arg2="1.569947"
       inkscape:rounded="0"
       inkscape:randomized="0"
       d="m 618.16979,373.34081 -86.22894,-67.56989 -85.55423,68.12226 37.61658,-102.88884 -91.22583,-60.31597 109.47726,3.98109 29.17357,-105.39959 30.04409,105.3493 109.25609,-4.82456 -90.909,61.12835 z"
       inkscape:transform-center-x="0.23129818"
       inkscape:transform-center-y="-4.5651083"
       transform="matrix(0.51295675,0,0,0.48012568,497.73194,547.12151)" /><path
       sodipodi:type="star"
       style="fill:#ffffff;fill-opacity:1;stroke:#ffffff;stroke-width:2.01503;stroke-linecap:butt;stroke-linejoin:miter;stroke-dasharray:none;stroke-dashoffset:0;stroke-opacity:1;paint-order:markers fill stroke"
       id="path5-1-1"
       inkscape:flatsided="false"
       sodipodi:sides="5"
       sodipodi:cx="531.89807"
       sodipodi:cy="255.39737"
       sodipodi:r1="146.12825"
       sodipodi:r2="50.373566"
       sodipodi:arg1="0.93926231"
       sodipodi:arg2="1.569947"
       inkscape:rounded="0"
       inkscape:randomized="0"
       d="m 618.16979,373.34081 -86.22894,-67.56989 -85.55423,68.12226 37.61658,-102.88884 -91.22583,-60.31597 109.47726,3.98109 29.17357,-105.39959 30.04409,105.3493 109.25609,-4.82456 -90.909,61.12835 z"
       inkscape:transform-center-x="0.23129818"
       inkscape:transform-center-y="-4.5651083"
       transform="matrix(0.51295675,0,0,0.48012568,41.59079,547.37041)" /></g></svg>
